<mxfile host="app.diagrams.net" modified="2023-04-17T02:29:52.369Z" agent="Mozilla/5.0 (Windows NT 10.0; Win64; x64) AppleWebKit/537.36 (KHTML, like Gecko) Chrome/111.0.0.0 Safari/537.36" etag="tdp2xjdlWm0L8uIun5iq" version="21.1.8" type="device" pages="3">
  <diagram name="Context Diagram" id="tHS7tO6gWRhxQsVo0IhC">
    <mxGraphModel dx="2524" dy="796" grid="1" gridSize="10" guides="1" tooltips="1" connect="1" arrows="1" fold="1" page="1" pageScale="1" pageWidth="850" pageHeight="1100" math="0" shadow="0">
      <root>
        <mxCell id="0" />
        <mxCell id="1" parent="0" />
        <mxCell id="fWpY7CSLGxJQYEoB9LF1-4" style="edgeStyle=orthogonalEdgeStyle;rounded=0;orthogonalLoop=1;jettySize=auto;html=1;" parent="1" source="fWpY7CSLGxJQYEoB9LF1-1" target="fWpY7CSLGxJQYEoB9LF1-2" edge="1">
          <mxGeometry relative="1" as="geometry" />
        </mxCell>
        <mxCell id="WHLhzBzJrfUJX0123oGM-1" value="Company Data/&lt;br&gt;Input" style="edgeLabel;html=1;align=center;verticalAlign=middle;resizable=0;points=[];fontSize=16;" parent="fWpY7CSLGxJQYEoB9LF1-4" vertex="1" connectable="0">
          <mxGeometry x="-0.4491" y="-1" relative="1" as="geometry">
            <mxPoint as="offset" />
          </mxGeometry>
        </mxCell>
        <mxCell id="fWpY7CSLGxJQYEoB9LF1-1" value="Customers" style="shape=cube;whiteSpace=wrap;html=1;boundedLbl=1;backgroundOutline=1;darkOpacity=0.05;darkOpacity2=0.1;size=10;" parent="1" vertex="1">
          <mxGeometry x="160" y="40" width="120" height="80" as="geometry" />
        </mxCell>
        <mxCell id="WHLhzBzJrfUJX0123oGM-12" style="edgeStyle=orthogonalEdgeStyle;rounded=0;orthogonalLoop=1;jettySize=auto;html=1;exitX=0.75;exitY=0;exitDx=0;exitDy=0;fontSize=12;startSize=8;endSize=8;entryX=0;entryY=0;entryDx=120;entryDy=10;entryPerimeter=0;" parent="1" source="fWpY7CSLGxJQYEoB9LF1-2" target="fWpY7CSLGxJQYEoB9LF1-1" edge="1">
          <mxGeometry relative="1" as="geometry">
            <mxPoint x="540" y="140" as="targetPoint" />
          </mxGeometry>
        </mxCell>
        <mxCell id="WHLhzBzJrfUJX0123oGM-13" value="Output" style="edgeLabel;html=1;align=center;verticalAlign=middle;resizable=0;points=[];fontSize=16;" parent="WHLhzBzJrfUJX0123oGM-12" vertex="1" connectable="0">
          <mxGeometry x="-0.4107" y="2" relative="1" as="geometry">
            <mxPoint as="offset" />
          </mxGeometry>
        </mxCell>
        <mxCell id="WHLhzBzJrfUJX0123oGM-14" style="edgeStyle=orthogonalEdgeStyle;rounded=0;orthogonalLoop=1;jettySize=auto;html=1;exitX=0;exitY=0.75;exitDx=0;exitDy=0;fontSize=12;startSize=8;endSize=8;" parent="1" source="fWpY7CSLGxJQYEoB9LF1-2" target="fWpY7CSLGxJQYEoB9LF1-7" edge="1">
          <mxGeometry relative="1" as="geometry" />
        </mxCell>
        <mxCell id="WHLhzBzJrfUJX0123oGM-15" value="Bug Reports" style="edgeLabel;html=1;align=center;verticalAlign=middle;resizable=0;points=[];fontSize=16;" parent="WHLhzBzJrfUJX0123oGM-14" vertex="1" connectable="0">
          <mxGeometry x="0.0745" y="-1" relative="1" as="geometry">
            <mxPoint as="offset" />
          </mxGeometry>
        </mxCell>
        <mxCell id="fWpY7CSLGxJQYEoB9LF1-2" value="System" style="rounded=1;whiteSpace=wrap;html=1;" parent="1" vertex="1">
          <mxGeometry x="460" y="230" width="130" height="140" as="geometry" />
        </mxCell>
        <mxCell id="fWpY7CSLGxJQYEoB9LF1-3" value="" style="endArrow=none;html=1;rounded=0;exitX=1;exitY=0.25;exitDx=0;exitDy=0;entryX=0;entryY=0.25;entryDx=0;entryDy=0;" parent="1" source="fWpY7CSLGxJQYEoB9LF1-2" target="fWpY7CSLGxJQYEoB9LF1-2" edge="1">
          <mxGeometry width="50" height="50" relative="1" as="geometry">
            <mxPoint x="400" y="310" as="sourcePoint" />
            <mxPoint x="450" y="260" as="targetPoint" />
          </mxGeometry>
        </mxCell>
        <mxCell id="fWpY7CSLGxJQYEoB9LF1-5" value="" style="rounded=0;whiteSpace=wrap;html=1;" parent="1" vertex="1">
          <mxGeometry x="-760" y="430" width="200" height="60" as="geometry" />
        </mxCell>
        <mxCell id="fWpY7CSLGxJQYEoB9LF1-6" value="" style="endArrow=none;html=1;rounded=0;entryX=0.25;entryY=0;entryDx=0;entryDy=0;exitX=0.25;exitY=1;exitDx=0;exitDy=0;" parent="1" source="fWpY7CSLGxJQYEoB9LF1-5" target="fWpY7CSLGxJQYEoB9LF1-5" edge="1">
          <mxGeometry width="50" height="50" relative="1" as="geometry">
            <mxPoint x="400" y="310" as="sourcePoint" />
            <mxPoint x="450" y="260" as="targetPoint" />
          </mxGeometry>
        </mxCell>
        <mxCell id="WHLhzBzJrfUJX0123oGM-16" style="edgeStyle=orthogonalEdgeStyle;rounded=0;orthogonalLoop=1;jettySize=auto;html=1;exitX=0;exitY=0;exitDx=120;exitDy=10;exitPerimeter=0;entryX=0.25;entryY=1;entryDx=0;entryDy=0;fontSize=12;startSize=8;endSize=8;" parent="1" source="fWpY7CSLGxJQYEoB9LF1-7" target="fWpY7CSLGxJQYEoB9LF1-2" edge="1">
          <mxGeometry relative="1" as="geometry" />
        </mxCell>
        <mxCell id="WHLhzBzJrfUJX0123oGM-18" value="Bug Fixes" style="edgeLabel;html=1;align=center;verticalAlign=middle;resizable=0;points=[];fontSize=16;" parent="WHLhzBzJrfUJX0123oGM-16" vertex="1" connectable="0">
          <mxGeometry x="0.2334" y="-2" relative="1" as="geometry">
            <mxPoint as="offset" />
          </mxGeometry>
        </mxCell>
        <mxCell id="fWpY7CSLGxJQYEoB9LF1-7" value="Developers" style="shape=cube;whiteSpace=wrap;html=1;boundedLbl=1;backgroundOutline=1;darkOpacity=0.05;darkOpacity2=0.1;size=10;" parent="1" vertex="1">
          <mxGeometry x="305" y="460" width="120" height="80" as="geometry" />
        </mxCell>
        <mxCell id="fWpY7CSLGxJQYEoB9LF1-9" value="" style="rounded=1;whiteSpace=wrap;html=1;absoluteArcSize=1;arcSize=14;strokeWidth=2;" parent="1" vertex="1">
          <mxGeometry x="-730" y="240" width="100" height="100" as="geometry" />
        </mxCell>
        <mxCell id="WHLhzBzJrfUJX0123oGM-6" value="" style="endArrow=classic;html=1;rounded=0;fontSize=12;startSize=8;endSize=8;curved=1;exitX=1;exitY=1;exitDx=0;exitDy=0;exitPerimeter=0;entryX=0;entryY=0;entryDx=0;entryDy=0;" parent="1" source="fWpY7CSLGxJQYEoB9LF1-1" target="fWpY7CSLGxJQYEoB9LF1-2" edge="1">
          <mxGeometry width="50" height="50" relative="1" as="geometry">
            <mxPoint x="340" y="300" as="sourcePoint" />
            <mxPoint x="390" y="250" as="targetPoint" />
          </mxGeometry>
        </mxCell>
        <mxCell id="WHLhzBzJrfUJX0123oGM-7" value="Bug Reports" style="edgeLabel;html=1;align=center;verticalAlign=middle;resizable=0;points=[];fontSize=16;" parent="WHLhzBzJrfUJX0123oGM-6" vertex="1" connectable="0">
          <mxGeometry x="0.1362" y="1" relative="1" as="geometry">
            <mxPoint as="offset" />
          </mxGeometry>
        </mxCell>
        <mxCell id="WHLhzBzJrfUJX0123oGM-8" style="edgeStyle=orthogonalEdgeStyle;rounded=0;orthogonalLoop=1;jettySize=auto;html=1;exitX=0;exitY=0;exitDx=65;exitDy=80;exitPerimeter=0;entryX=0;entryY=0.25;entryDx=0;entryDy=0;" parent="1" source="fWpY7CSLGxJQYEoB9LF1-1" target="fWpY7CSLGxJQYEoB9LF1-2" edge="1">
          <mxGeometry relative="1" as="geometry">
            <mxPoint x="215" y="260" as="sourcePoint" />
            <mxPoint x="460" y="410" as="targetPoint" />
          </mxGeometry>
        </mxCell>
        <mxCell id="WHLhzBzJrfUJX0123oGM-9" value="Customer Credit&lt;br&gt;Card Information" style="edgeLabel;html=1;align=center;verticalAlign=middle;resizable=0;points=[];fontSize=16;" parent="WHLhzBzJrfUJX0123oGM-8" vertex="1" connectable="0">
          <mxGeometry x="-0.4491" y="-1" relative="1" as="geometry">
            <mxPoint as="offset" />
          </mxGeometry>
        </mxCell>
        <mxCell id="WHLhzBzJrfUJX0123oGM-20" style="edgeStyle=orthogonalEdgeStyle;rounded=0;orthogonalLoop=1;jettySize=auto;html=1;exitX=-0.011;exitY=0.21;exitDx=0;exitDy=0;exitPerimeter=0;entryX=1;entryY=0.75;entryDx=0;entryDy=0;fontSize=12;startSize=8;endSize=8;" parent="1" source="WHLhzBzJrfUJX0123oGM-19" edge="1">
          <mxGeometry relative="1" as="geometry">
            <mxPoint x="670" y="505" as="sourcePoint" />
            <mxPoint x="560" y="380" as="targetPoint" />
          </mxGeometry>
        </mxCell>
        <mxCell id="WHLhzBzJrfUJX0123oGM-21" value="&lt;font style=&quot;font-size: 13px;&quot;&gt;Customer&amp;nbsp;&lt;br&gt;Credit Card&lt;br&gt;Information&lt;/font&gt;" style="edgeLabel;html=1;align=center;verticalAlign=middle;resizable=0;points=[];fontSize=16;" parent="WHLhzBzJrfUJX0123oGM-20" vertex="1" connectable="0">
          <mxGeometry x="-0.2622" y="1" relative="1" as="geometry">
            <mxPoint x="1" y="-4" as="offset" />
          </mxGeometry>
        </mxCell>
        <mxCell id="WHLhzBzJrfUJX0123oGM-19" value="Bank" style="shape=cube;whiteSpace=wrap;html=1;boundedLbl=1;backgroundOutline=1;darkOpacity=0.05;darkOpacity2=0.1;fontSize=16;size=10;" parent="1" vertex="1">
          <mxGeometry x="700" y="460" width="130" height="60" as="geometry" />
        </mxCell>
        <mxCell id="WHLhzBzJrfUJX0123oGM-22" value="" style="edgeStyle=segmentEdgeStyle;endArrow=classic;html=1;curved=0;rounded=0;endSize=8;startSize=8;fontSize=12;exitX=1.003;exitY=0.451;exitDx=0;exitDy=0;exitPerimeter=0;entryX=0;entryY=0;entryDx=60;entryDy=0;entryPerimeter=0;" parent="1" source="fWpY7CSLGxJQYEoB9LF1-2" target="WHLhzBzJrfUJX0123oGM-19" edge="1">
          <mxGeometry width="50" height="50" relative="1" as="geometry">
            <mxPoint x="630" y="280" as="sourcePoint" />
            <mxPoint x="680" y="230" as="targetPoint" />
          </mxGeometry>
        </mxCell>
        <mxCell id="WHLhzBzJrfUJX0123oGM-23" value="Confirmation of &lt;br&gt;Customer Information" style="edgeLabel;html=1;align=center;verticalAlign=middle;resizable=0;points=[];fontSize=16;" parent="WHLhzBzJrfUJX0123oGM-22" vertex="1" connectable="0">
          <mxGeometry x="0.2016" y="-2" relative="1" as="geometry">
            <mxPoint as="offset" />
          </mxGeometry>
        </mxCell>
      </root>
    </mxGraphModel>
  </diagram>
  <diagram name="DFD-0" id="_ZpZdbQB8objeZwZXStN">
    <mxGraphModel dx="2165" dy="221" grid="1" gridSize="10" guides="1" tooltips="1" connect="1" arrows="1" fold="1" page="1" pageScale="1" pageWidth="850" pageHeight="1100" math="0" shadow="0">
      <root>
        <mxCell id="uVNXbIK9w796rNSbTTnS-0" />
        <mxCell id="uVNXbIK9w796rNSbTTnS-1" parent="uVNXbIK9w796rNSbTTnS-0" />
        <mxCell id="8O-GlBcKhjpDCLiOYxvy-43" style="edgeStyle=orthogonalEdgeStyle;rounded=0;orthogonalLoop=1;jettySize=auto;html=1;exitX=1;exitY=1;exitDx=0;exitDy=0;entryX=0.25;entryY=1;entryDx=0;entryDy=0;" parent="uVNXbIK9w796rNSbTTnS-1" source="uVNXbIK9w796rNSbTTnS-11" target="8O-GlBcKhjpDCLiOYxvy-35" edge="1">
          <mxGeometry relative="1" as="geometry" />
        </mxCell>
        <mxCell id="8O-GlBcKhjpDCLiOYxvy-44" value="Verification of username&lt;br&gt;and password" style="edgeLabel;html=1;align=center;verticalAlign=middle;resizable=0;points=[];" parent="8O-GlBcKhjpDCLiOYxvy-43" vertex="1" connectable="0">
          <mxGeometry x="-0.4333" relative="1" as="geometry">
            <mxPoint x="13" as="offset" />
          </mxGeometry>
        </mxCell>
        <mxCell id="uVNXbIK9w796rNSbTTnS-11" value="Customer&lt;br&gt;Database" style="rounded=0;whiteSpace=wrap;html=1;" parent="uVNXbIK9w796rNSbTTnS-1" vertex="1">
          <mxGeometry x="-712.5" y="595" width="135" height="30" as="geometry" />
        </mxCell>
        <mxCell id="uVNXbIK9w796rNSbTTnS-12" value="" style="endArrow=none;html=1;rounded=0;entryX=0.25;entryY=0;entryDx=0;entryDy=0;exitX=0.25;exitY=1;exitDx=0;exitDy=0;" parent="uVNXbIK9w796rNSbTTnS-1" source="uVNXbIK9w796rNSbTTnS-11" target="uVNXbIK9w796rNSbTTnS-11" edge="1">
          <mxGeometry width="50" height="50" relative="1" as="geometry">
            <mxPoint x="410" y="555" as="sourcePoint" />
            <mxPoint x="460" y="505" as="targetPoint" />
          </mxGeometry>
        </mxCell>
        <mxCell id="8O-GlBcKhjpDCLiOYxvy-22" style="edgeStyle=orthogonalEdgeStyle;rounded=0;orthogonalLoop=1;jettySize=auto;html=1;entryX=0.276;entryY=-0.011;entryDx=0;entryDy=0;entryPerimeter=0;" parent="uVNXbIK9w796rNSbTTnS-1" target="8O-GlBcKhjpDCLiOYxvy-21" edge="1">
          <mxGeometry relative="1" as="geometry">
            <mxPoint x="-890" y="455" as="sourcePoint" />
            <Array as="points">
              <mxPoint x="-962" y="455" />
            </Array>
          </mxGeometry>
        </mxCell>
        <mxCell id="8O-GlBcKhjpDCLiOYxvy-25" value="Verify Credit&lt;br&gt;Card" style="edgeLabel;html=1;align=center;verticalAlign=middle;resizable=0;points=[];" parent="8O-GlBcKhjpDCLiOYxvy-22" vertex="1" connectable="0">
          <mxGeometry x="-0.0517" y="1" relative="1" as="geometry">
            <mxPoint y="16" as="offset" />
          </mxGeometry>
        </mxCell>
        <mxCell id="0iLN6_N7VzlxQePsTh-u-1" value="Verification of Credit Card&amp;nbsp;" style="rounded=1;whiteSpace=wrap;html=1;" parent="uVNXbIK9w796rNSbTTnS-1" vertex="1">
          <mxGeometry x="-880" y="400" width="100" height="95" as="geometry" />
        </mxCell>
        <mxCell id="0iLN6_N7VzlxQePsTh-u-5" value="Customer Database" style="rounded=1;whiteSpace=wrap;html=1;" parent="uVNXbIK9w796rNSbTTnS-1" vertex="1">
          <mxGeometry x="-290" y="940" width="130" height="140" as="geometry" />
        </mxCell>
        <mxCell id="0iLN6_N7VzlxQePsTh-u-6" value="Automated Email System" style="rounded=1;whiteSpace=wrap;html=1;" parent="uVNXbIK9w796rNSbTTnS-1" vertex="1">
          <mxGeometry x="-100" y="890" width="130" height="140" as="geometry" />
        </mxCell>
        <mxCell id="8O-GlBcKhjpDCLiOYxvy-2" value="" style="endArrow=none;html=1;rounded=0;exitX=1;exitY=0.25;exitDx=0;exitDy=0;entryX=0;entryY=0.25;entryDx=0;entryDy=0;" parent="uVNXbIK9w796rNSbTTnS-1" source="0iLN6_N7VzlxQePsTh-u-1" target="0iLN6_N7VzlxQePsTh-u-1" edge="1">
          <mxGeometry width="50" height="50" relative="1" as="geometry">
            <mxPoint x="-470" y="745" as="sourcePoint" />
            <mxPoint x="-420" y="695" as="targetPoint" />
          </mxGeometry>
        </mxCell>
        <mxCell id="8O-GlBcKhjpDCLiOYxvy-15" style="edgeStyle=orthogonalEdgeStyle;rounded=0;orthogonalLoop=1;jettySize=auto;html=1;entryX=0.997;entryY=0.561;entryDx=0;entryDy=0;exitX=0;exitY=0;exitDx=0;exitDy=30;exitPerimeter=0;entryPerimeter=0;" parent="uVNXbIK9w796rNSbTTnS-1" target="8O-GlBcKhjpDCLiOYxvy-6" edge="1">
          <mxGeometry relative="1" as="geometry">
            <mxPoint x="-599.99" y="458.8849999999999" as="targetPoint" />
            <mxPoint x="-519" y="315" as="sourcePoint" />
            <Array as="points">
              <mxPoint x="-549" y="315" />
              <mxPoint x="-549" y="455" />
              <mxPoint x="-600" y="455" />
            </Array>
          </mxGeometry>
        </mxCell>
        <mxCell id="8O-GlBcKhjpDCLiOYxvy-18" value="Name, Phone #,&lt;br&gt;Address, &lt;br&gt;Credit Card Information&lt;br&gt;&amp;nbsp;Username, Password" style="edgeLabel;html=1;align=center;verticalAlign=middle;resizable=0;points=[];" parent="8O-GlBcKhjpDCLiOYxvy-15" vertex="1" connectable="0">
          <mxGeometry x="-0.1333" relative="1" as="geometry">
            <mxPoint x="-2" y="-7" as="offset" />
          </mxGeometry>
        </mxCell>
        <mxCell id="8O-GlBcKhjpDCLiOYxvy-34" style="edgeStyle=orthogonalEdgeStyle;rounded=0;orthogonalLoop=1;jettySize=auto;html=1;exitX=0;exitY=0;exitDx=95;exitDy=25;exitPerimeter=0;entryX=0.25;entryY=0;entryDx=0;entryDy=0;" parent="uVNXbIK9w796rNSbTTnS-1" source="8O-GlBcKhjpDCLiOYxvy-3" target="8O-GlBcKhjpDCLiOYxvy-35" edge="1">
          <mxGeometry relative="1" as="geometry">
            <mxPoint x="-390" y="455" as="targetPoint" />
            <Array as="points">
              <mxPoint x="-380" y="310" />
              <mxPoint x="-380" y="545" />
            </Array>
          </mxGeometry>
        </mxCell>
        <mxCell id="8O-GlBcKhjpDCLiOYxvy-37" value="Username,&lt;br&gt;Password" style="edgeLabel;html=1;align=center;verticalAlign=middle;resizable=0;points=[];" parent="8O-GlBcKhjpDCLiOYxvy-34" vertex="1" connectable="0">
          <mxGeometry x="-0.0116" y="1" relative="1" as="geometry">
            <mxPoint x="-11" y="18" as="offset" />
          </mxGeometry>
        </mxCell>
        <mxCell id="8O-GlBcKhjpDCLiOYxvy-54" style="edgeStyle=orthogonalEdgeStyle;rounded=0;orthogonalLoop=1;jettySize=auto;html=1;exitX=0;exitY=0;exitDx=85;exitDy=0;exitPerimeter=0;entryX=0;entryY=0.25;entryDx=0;entryDy=0;" parent="uVNXbIK9w796rNSbTTnS-1" source="8O-GlBcKhjpDCLiOYxvy-3" target="8O-GlBcKhjpDCLiOYxvy-51" edge="1">
          <mxGeometry relative="1" as="geometry">
            <mxPoint x="-300" y="265" as="targetPoint" />
            <Array as="points">
              <mxPoint x="-435" y="265" />
              <mxPoint x="-320" y="265" />
              <mxPoint x="-320" y="282" />
            </Array>
          </mxGeometry>
        </mxCell>
        <mxCell id="8O-GlBcKhjpDCLiOYxvy-55" value="Bug Reports" style="edgeLabel;html=1;align=center;verticalAlign=middle;resizable=0;points=[];" parent="8O-GlBcKhjpDCLiOYxvy-54" vertex="1" connectable="0">
          <mxGeometry x="-0.2274" y="-1" relative="1" as="geometry">
            <mxPoint y="1" as="offset" />
          </mxGeometry>
        </mxCell>
        <mxCell id="8O-GlBcKhjpDCLiOYxvy-3" value="Customer" style="shape=cube;whiteSpace=wrap;html=1;boundedLbl=1;backgroundOutline=1;darkOpacity=0.05;darkOpacity2=0.1;size=10;" parent="uVNXbIK9w796rNSbTTnS-1" vertex="1">
          <mxGeometry x="-520" y="285" width="95" height="40" as="geometry" />
        </mxCell>
        <mxCell id="8O-GlBcKhjpDCLiOYxvy-14" style="edgeStyle=orthogonalEdgeStyle;rounded=0;orthogonalLoop=1;jettySize=auto;html=1;exitX=0.014;exitY=0.448;exitDx=0;exitDy=0;entryX=1;entryY=0.5;entryDx=0;entryDy=0;exitPerimeter=0;" parent="uVNXbIK9w796rNSbTTnS-1" source="8O-GlBcKhjpDCLiOYxvy-4" target="8O-GlBcKhjpDCLiOYxvy-35" edge="1">
          <mxGeometry relative="1" as="geometry">
            <mxPoint x="-150" y="365" as="targetPoint" />
          </mxGeometry>
        </mxCell>
        <mxCell id="8O-GlBcKhjpDCLiOYxvy-38" value="Output" style="edgeLabel;html=1;align=center;verticalAlign=middle;resizable=0;points=[];" parent="8O-GlBcKhjpDCLiOYxvy-14" vertex="1" connectable="0">
          <mxGeometry x="-0.2229" y="-2" relative="1" as="geometry">
            <mxPoint x="2" y="24" as="offset" />
          </mxGeometry>
        </mxCell>
        <mxCell id="8O-GlBcKhjpDCLiOYxvy-4" value="Artificial Intelligence" style="rounded=1;whiteSpace=wrap;html=1;" parent="uVNXbIK9w796rNSbTTnS-1" vertex="1">
          <mxGeometry x="-160" y="455" width="70" height="90" as="geometry" />
        </mxCell>
        <mxCell id="8O-GlBcKhjpDCLiOYxvy-5" value="" style="endArrow=none;html=1;rounded=0;exitX=1;exitY=0.25;exitDx=0;exitDy=0;entryX=0;entryY=0.25;entryDx=0;entryDy=0;" parent="uVNXbIK9w796rNSbTTnS-1" source="8O-GlBcKhjpDCLiOYxvy-4" target="8O-GlBcKhjpDCLiOYxvy-4" edge="1">
          <mxGeometry width="50" height="50" relative="1" as="geometry">
            <mxPoint x="90" y="455" as="sourcePoint" />
            <mxPoint x="140" y="405" as="targetPoint" />
          </mxGeometry>
        </mxCell>
        <mxCell id="8O-GlBcKhjpDCLiOYxvy-19" style="edgeStyle=orthogonalEdgeStyle;rounded=0;orthogonalLoop=1;jettySize=auto;html=1;exitX=0.418;exitY=1.079;exitDx=0;exitDy=0;entryX=1;entryY=0.5;entryDx=0;entryDy=0;exitPerimeter=0;" parent="uVNXbIK9w796rNSbTTnS-1" source="8O-GlBcKhjpDCLiOYxvy-29" target="0iLN6_N7VzlxQePsTh-u-1" edge="1">
          <mxGeometry relative="1" as="geometry" />
        </mxCell>
        <mxCell id="8O-GlBcKhjpDCLiOYxvy-20" value="Credit Card&lt;br&gt;Information" style="edgeLabel;html=1;align=center;verticalAlign=middle;resizable=0;points=[];" parent="8O-GlBcKhjpDCLiOYxvy-19" vertex="1" connectable="0">
          <mxGeometry x="-0.2964" relative="1" as="geometry">
            <mxPoint x="-5" y="-2" as="offset" />
          </mxGeometry>
        </mxCell>
        <mxCell id="8O-GlBcKhjpDCLiOYxvy-26" style="edgeStyle=orthogonalEdgeStyle;rounded=0;orthogonalLoop=1;jettySize=auto;html=1;exitX=0.5;exitY=1;exitDx=0;exitDy=0;entryX=0.5;entryY=0;entryDx=0;entryDy=0;" parent="uVNXbIK9w796rNSbTTnS-1" source="8O-GlBcKhjpDCLiOYxvy-6" target="uVNXbIK9w796rNSbTTnS-11" edge="1">
          <mxGeometry relative="1" as="geometry" />
        </mxCell>
        <mxCell id="8O-GlBcKhjpDCLiOYxvy-27" value="Name, Phone #, Membership ID,&lt;br&gt;Username, Password" style="edgeLabel;html=1;align=center;verticalAlign=middle;resizable=0;points=[];" parent="8O-GlBcKhjpDCLiOYxvy-26" vertex="1" connectable="0">
          <mxGeometry x="-0.2163" y="1" relative="1" as="geometry">
            <mxPoint as="offset" />
          </mxGeometry>
        </mxCell>
        <mxCell id="8O-GlBcKhjpDCLiOYxvy-31" style="edgeStyle=orthogonalEdgeStyle;rounded=0;orthogonalLoop=1;jettySize=auto;html=1;exitX=0.5;exitY=0;exitDx=0;exitDy=0;entryX=1;entryY=0.5;entryDx=0;entryDy=0;" parent="uVNXbIK9w796rNSbTTnS-1" source="8O-GlBcKhjpDCLiOYxvy-6" target="8O-GlBcKhjpDCLiOYxvy-29" edge="1">
          <mxGeometry relative="1" as="geometry" />
        </mxCell>
        <mxCell id="8O-GlBcKhjpDCLiOYxvy-32" value="Membership ID,&amp;nbsp;&lt;br&gt;Credit Card Information" style="edgeLabel;html=1;align=center;verticalAlign=middle;resizable=0;points=[];" parent="8O-GlBcKhjpDCLiOYxvy-31" vertex="1" connectable="0">
          <mxGeometry x="-0.4563" y="-1" relative="1" as="geometry">
            <mxPoint x="-6" y="-13" as="offset" />
          </mxGeometry>
        </mxCell>
        <mxCell id="8O-GlBcKhjpDCLiOYxvy-6" value="Customer&lt;br&gt;Account&lt;br&gt;Creation&lt;br&gt;System" style="rounded=1;whiteSpace=wrap;html=1;" parent="uVNXbIK9w796rNSbTTnS-1" vertex="1">
          <mxGeometry x="-710" y="390" width="90" height="115" as="geometry" />
        </mxCell>
        <mxCell id="8O-GlBcKhjpDCLiOYxvy-7" value="" style="endArrow=none;html=1;rounded=0;exitX=1;exitY=0.25;exitDx=0;exitDy=0;entryX=0;entryY=0.25;entryDx=0;entryDy=0;" parent="uVNXbIK9w796rNSbTTnS-1" source="8O-GlBcKhjpDCLiOYxvy-6" target="8O-GlBcKhjpDCLiOYxvy-6" edge="1">
          <mxGeometry width="50" height="50" relative="1" as="geometry">
            <mxPoint x="90" y="585" as="sourcePoint" />
            <mxPoint x="140" y="535" as="targetPoint" />
          </mxGeometry>
        </mxCell>
        <mxCell id="8O-GlBcKhjpDCLiOYxvy-10" value="" style="endArrow=classic;html=1;rounded=0;entryX=0;entryY=0;entryDx=0;entryDy=0;exitX=1;exitY=1;exitDx=0;exitDy=0;exitPerimeter=0;edgeStyle=orthogonalEdgeStyle;" parent="uVNXbIK9w796rNSbTTnS-1" source="8O-GlBcKhjpDCLiOYxvy-3" target="8O-GlBcKhjpDCLiOYxvy-35" edge="1">
          <mxGeometry width="50" height="50" relative="1" as="geometry">
            <mxPoint x="-440" y="325" as="sourcePoint" />
            <mxPoint x="-290" y="309" as="targetPoint" />
            <Array as="points">
              <mxPoint x="-425" y="545" />
            </Array>
          </mxGeometry>
        </mxCell>
        <mxCell id="8O-GlBcKhjpDCLiOYxvy-11" value="Data" style="edgeLabel;html=1;align=center;verticalAlign=middle;resizable=0;points=[];" parent="8O-GlBcKhjpDCLiOYxvy-10" vertex="1" connectable="0">
          <mxGeometry x="-0.3092" y="-2" relative="1" as="geometry">
            <mxPoint x="4" y="48" as="offset" />
          </mxGeometry>
        </mxCell>
        <mxCell id="8O-GlBcKhjpDCLiOYxvy-23" style="edgeStyle=orthogonalEdgeStyle;rounded=0;orthogonalLoop=1;jettySize=auto;html=1;exitX=0;exitY=0;exitDx=100;exitDy=10;exitPerimeter=0;entryX=0.5;entryY=1;entryDx=0;entryDy=0;" parent="uVNXbIK9w796rNSbTTnS-1" source="8O-GlBcKhjpDCLiOYxvy-21" target="0iLN6_N7VzlxQePsTh-u-1" edge="1">
          <mxGeometry relative="1" as="geometry" />
        </mxCell>
        <mxCell id="8O-GlBcKhjpDCLiOYxvy-24" value="Verification Back" style="edgeLabel;html=1;align=center;verticalAlign=middle;resizable=0;points=[];" parent="8O-GlBcKhjpDCLiOYxvy-23" vertex="1" connectable="0">
          <mxGeometry x="-0.1817" relative="1" as="geometry">
            <mxPoint x="9" y="-20" as="offset" />
          </mxGeometry>
        </mxCell>
        <mxCell id="8O-GlBcKhjpDCLiOYxvy-21" value="Bank" style="shape=cube;whiteSpace=wrap;html=1;boundedLbl=1;backgroundOutline=1;darkOpacity=0.05;darkOpacity2=0.1;size=10;" parent="uVNXbIK9w796rNSbTTnS-1" vertex="1">
          <mxGeometry x="-990" y="535" width="100" height="40" as="geometry" />
        </mxCell>
        <mxCell id="8O-GlBcKhjpDCLiOYxvy-29" value="Customer&lt;br&gt;Credit Card&lt;br&gt;Information" style="rounded=0;whiteSpace=wrap;html=1;" parent="uVNXbIK9w796rNSbTTnS-1" vertex="1">
          <mxGeometry x="-810" y="285" width="132.5" height="40" as="geometry" />
        </mxCell>
        <mxCell id="8O-GlBcKhjpDCLiOYxvy-30" value="" style="endArrow=none;html=1;rounded=0;entryX=0.25;entryY=0;entryDx=0;entryDy=0;exitX=0.25;exitY=1;exitDx=0;exitDy=0;" parent="uVNXbIK9w796rNSbTTnS-1" source="8O-GlBcKhjpDCLiOYxvy-29" target="8O-GlBcKhjpDCLiOYxvy-29" edge="1">
          <mxGeometry width="50" height="50" relative="1" as="geometry">
            <mxPoint x="790" y="240" as="sourcePoint" />
            <mxPoint x="840" y="190" as="targetPoint" />
          </mxGeometry>
        </mxCell>
        <mxCell id="8O-GlBcKhjpDCLiOYxvy-58" style="edgeStyle=orthogonalEdgeStyle;rounded=0;orthogonalLoop=1;jettySize=auto;html=1;exitX=0;exitY=0;exitDx=55;exitDy=40;exitPerimeter=0;entryX=1;entryY=0.25;entryDx=0;entryDy=0;" parent="uVNXbIK9w796rNSbTTnS-1" source="8O-GlBcKhjpDCLiOYxvy-33" target="8O-GlBcKhjpDCLiOYxvy-35" edge="1">
          <mxGeometry relative="1" as="geometry">
            <Array as="points">
              <mxPoint x="-285" y="565" />
            </Array>
          </mxGeometry>
        </mxCell>
        <mxCell id="8O-GlBcKhjpDCLiOYxvy-59" value="Bug Fixes" style="edgeLabel;html=1;align=center;verticalAlign=middle;resizable=0;points=[];" parent="8O-GlBcKhjpDCLiOYxvy-58" vertex="1" connectable="0">
          <mxGeometry x="-0.6172" y="-1" relative="1" as="geometry">
            <mxPoint as="offset" />
          </mxGeometry>
        </mxCell>
        <mxCell id="8O-GlBcKhjpDCLiOYxvy-33" value="Developers" style="shape=cube;whiteSpace=wrap;html=1;boundedLbl=1;backgroundOutline=1;darkOpacity=0.05;darkOpacity2=0.1;size=10;" parent="uVNXbIK9w796rNSbTTnS-1" vertex="1">
          <mxGeometry x="-340" y="415" width="100" height="40" as="geometry" />
        </mxCell>
        <mxCell id="8O-GlBcKhjpDCLiOYxvy-39" style="edgeStyle=orthogonalEdgeStyle;rounded=0;orthogonalLoop=1;jettySize=auto;html=1;exitX=1.035;exitY=0.843;exitDx=0;exitDy=0;entryX=0;entryY=0.5;entryDx=0;entryDy=0;exitPerimeter=0;" parent="uVNXbIK9w796rNSbTTnS-1" source="8O-GlBcKhjpDCLiOYxvy-35" target="kyH181XiA7HLdcyvjKoy-0" edge="1">
          <mxGeometry relative="1" as="geometry">
            <Array as="points">
              <mxPoint x="-300" y="612" />
              <mxPoint x="-300" y="675" />
            </Array>
          </mxGeometry>
        </mxCell>
        <mxCell id="8O-GlBcKhjpDCLiOYxvy-40" value="Data" style="edgeLabel;html=1;align=center;verticalAlign=middle;resizable=0;points=[];" parent="8O-GlBcKhjpDCLiOYxvy-39" vertex="1" connectable="0">
          <mxGeometry x="-0.1956" y="-1" relative="1" as="geometry">
            <mxPoint x="7" as="offset" />
          </mxGeometry>
        </mxCell>
        <mxCell id="8O-GlBcKhjpDCLiOYxvy-41" style="edgeStyle=orthogonalEdgeStyle;rounded=0;orthogonalLoop=1;jettySize=auto;html=1;exitX=0;exitY=0.75;exitDx=0;exitDy=0;entryX=1;entryY=0.25;entryDx=0;entryDy=0;" parent="uVNXbIK9w796rNSbTTnS-1" source="8O-GlBcKhjpDCLiOYxvy-35" target="uVNXbIK9w796rNSbTTnS-11" edge="1">
          <mxGeometry relative="1" as="geometry" />
        </mxCell>
        <mxCell id="8O-GlBcKhjpDCLiOYxvy-42" value="Username&lt;br&gt;and Password" style="edgeLabel;html=1;align=center;verticalAlign=middle;resizable=0;points=[];" parent="8O-GlBcKhjpDCLiOYxvy-41" vertex="1" connectable="0">
          <mxGeometry x="-0.0789" y="-2" relative="1" as="geometry">
            <mxPoint as="offset" />
          </mxGeometry>
        </mxCell>
        <mxCell id="8O-GlBcKhjpDCLiOYxvy-45" style="edgeStyle=orthogonalEdgeStyle;rounded=0;orthogonalLoop=1;jettySize=auto;html=1;exitX=1;exitY=0.125;exitDx=0;exitDy=0;entryX=0;entryY=0;entryDx=95;entryDy=10;entryPerimeter=0;exitPerimeter=0;" parent="uVNXbIK9w796rNSbTTnS-1" source="8O-GlBcKhjpDCLiOYxvy-35" target="8O-GlBcKhjpDCLiOYxvy-3" edge="1">
          <mxGeometry relative="1" as="geometry">
            <Array as="points">
              <mxPoint x="-350" y="465" />
              <mxPoint x="-350" y="295" />
            </Array>
          </mxGeometry>
        </mxCell>
        <mxCell id="8O-GlBcKhjpDCLiOYxvy-46" value="Output" style="edgeLabel;html=1;align=center;verticalAlign=middle;resizable=0;points=[];" parent="8O-GlBcKhjpDCLiOYxvy-45" vertex="1" connectable="0">
          <mxGeometry x="0.074" y="1" relative="1" as="geometry">
            <mxPoint y="13" as="offset" />
          </mxGeometry>
        </mxCell>
        <mxCell id="kyH181XiA7HLdcyvjKoy-7" style="edgeStyle=orthogonalEdgeStyle;rounded=0;orthogonalLoop=1;jettySize=auto;html=1;exitX=0.75;exitY=1;exitDx=0;exitDy=0;entryX=0;entryY=0.5;entryDx=0;entryDy=0;" edge="1" parent="uVNXbIK9w796rNSbTTnS-1" source="8O-GlBcKhjpDCLiOYxvy-35" target="kyH181XiA7HLdcyvjKoy-0">
          <mxGeometry relative="1" as="geometry" />
        </mxCell>
        <mxCell id="kyH181XiA7HLdcyvjKoy-8" value="Customer&lt;br&gt;ID" style="edgeLabel;html=1;align=center;verticalAlign=middle;resizable=0;points=[];" vertex="1" connectable="0" parent="kyH181XiA7HLdcyvjKoy-7">
          <mxGeometry x="-0.4553" y="-1" relative="1" as="geometry">
            <mxPoint as="offset" />
          </mxGeometry>
        </mxCell>
        <mxCell id="8O-GlBcKhjpDCLiOYxvy-35" value="Application" style="rounded=1;whiteSpace=wrap;html=1;" parent="uVNXbIK9w796rNSbTTnS-1" vertex="1">
          <mxGeometry x="-390" y="545" width="70" height="80" as="geometry" />
        </mxCell>
        <mxCell id="8O-GlBcKhjpDCLiOYxvy-36" value="" style="endArrow=none;html=1;rounded=0;exitX=1;exitY=0.25;exitDx=0;exitDy=0;entryX=0;entryY=0.25;entryDx=0;entryDy=0;" parent="uVNXbIK9w796rNSbTTnS-1" source="8O-GlBcKhjpDCLiOYxvy-35" target="8O-GlBcKhjpDCLiOYxvy-35" edge="1">
          <mxGeometry width="50" height="50" relative="1" as="geometry">
            <mxPoint x="-150" y="565" as="sourcePoint" />
            <mxPoint x="-100" y="515" as="targetPoint" />
          </mxGeometry>
        </mxCell>
        <mxCell id="8O-GlBcKhjpDCLiOYxvy-56" style="edgeStyle=orthogonalEdgeStyle;rounded=0;orthogonalLoop=1;jettySize=auto;html=1;exitX=0.5;exitY=1;exitDx=0;exitDy=0;entryX=0;entryY=0;entryDx=90;entryDy=0;entryPerimeter=0;" parent="uVNXbIK9w796rNSbTTnS-1" source="8O-GlBcKhjpDCLiOYxvy-51" target="8O-GlBcKhjpDCLiOYxvy-33" edge="1">
          <mxGeometry relative="1" as="geometry">
            <Array as="points">
              <mxPoint x="-250" y="395" />
              <mxPoint x="-250" y="395" />
            </Array>
          </mxGeometry>
        </mxCell>
        <mxCell id="8O-GlBcKhjpDCLiOYxvy-57" value="Bug Report" style="edgeLabel;html=1;align=center;verticalAlign=middle;resizable=0;points=[];" parent="8O-GlBcKhjpDCLiOYxvy-56" vertex="1" connectable="0">
          <mxGeometry x="0.1111" relative="1" as="geometry">
            <mxPoint as="offset" />
          </mxGeometry>
        </mxCell>
        <mxCell id="8O-GlBcKhjpDCLiOYxvy-51" value="Bug Report&lt;br&gt;System" style="rounded=1;whiteSpace=wrap;html=1;" parent="uVNXbIK9w796rNSbTTnS-1" vertex="1">
          <mxGeometry x="-290" y="260" width="80" height="90" as="geometry" />
        </mxCell>
        <mxCell id="8O-GlBcKhjpDCLiOYxvy-52" value="" style="endArrow=none;html=1;rounded=0;exitX=1;exitY=0.25;exitDx=0;exitDy=0;entryX=0;entryY=0.25;entryDx=0;entryDy=0;" parent="uVNXbIK9w796rNSbTTnS-1" source="8O-GlBcKhjpDCLiOYxvy-51" target="8O-GlBcKhjpDCLiOYxvy-51" edge="1">
          <mxGeometry width="50" height="50" relative="1" as="geometry">
            <mxPoint y="420" as="sourcePoint" />
            <mxPoint x="50" y="370" as="targetPoint" />
          </mxGeometry>
        </mxCell>
        <mxCell id="kyH181XiA7HLdcyvjKoy-3" style="edgeStyle=orthogonalEdgeStyle;rounded=0;orthogonalLoop=1;jettySize=auto;html=1;exitX=1;exitY=0.5;exitDx=0;exitDy=0;entryX=0.75;entryY=1;entryDx=0;entryDy=0;" edge="1" parent="uVNXbIK9w796rNSbTTnS-1" source="kyH181XiA7HLdcyvjKoy-0" target="8O-GlBcKhjpDCLiOYxvy-4">
          <mxGeometry relative="1" as="geometry" />
        </mxCell>
        <mxCell id="kyH181XiA7HLdcyvjKoy-4" value="Data" style="edgeLabel;html=1;align=center;verticalAlign=middle;resizable=0;points=[];" vertex="1" connectable="0" parent="kyH181XiA7HLdcyvjKoy-3">
          <mxGeometry x="0.3027" y="1" relative="1" as="geometry">
            <mxPoint as="offset" />
          </mxGeometry>
        </mxCell>
        <mxCell id="kyH181XiA7HLdcyvjKoy-0" value="Data" style="rounded=0;whiteSpace=wrap;html=1;" vertex="1" parent="uVNXbIK9w796rNSbTTnS-1">
          <mxGeometry x="-280" y="660" width="150" height="30" as="geometry" />
        </mxCell>
        <mxCell id="kyH181XiA7HLdcyvjKoy-1" value="" style="endArrow=none;html=1;rounded=0;entryX=0.25;entryY=0;entryDx=0;entryDy=0;exitX=0.25;exitY=1;exitDx=0;exitDy=0;" edge="1" source="kyH181XiA7HLdcyvjKoy-0" target="kyH181XiA7HLdcyvjKoy-0" parent="uVNXbIK9w796rNSbTTnS-1">
          <mxGeometry width="50" height="50" relative="1" as="geometry">
            <mxPoint x="905" y="360" as="sourcePoint" />
            <mxPoint x="955" y="310" as="targetPoint" />
          </mxGeometry>
        </mxCell>
      </root>
    </mxGraphModel>
  </diagram>
  <diagram id="_Oo9BccrLmWvNJxZaGpd" name="PERT Chart">
    <mxGraphModel dx="3044" dy="1447" grid="1" gridSize="10" guides="1" tooltips="1" connect="1" arrows="1" fold="1" page="1" pageScale="1" pageWidth="850" pageHeight="1100" math="0" shadow="0">
      <root>
        <mxCell id="0" />
        <mxCell id="1" parent="0" />
        <mxCell id="RmDj4SJA848HAbw2TdGj-1" value="1.1" style="shape=table;startSize=30;container=1;collapsible=0;childLayout=tableLayout;fixedRows=1;rowLines=0;fontStyle=0;strokeColor=default;fontSize=16;fillColor=#FFFF66;" parent="1" vertex="1">
          <mxGeometry x="40" y="100" width="250" height="140" as="geometry" />
        </mxCell>
        <mxCell id="RmDj4SJA848HAbw2TdGj-2" value="" style="shape=tableRow;horizontal=0;startSize=0;swimlaneHead=0;swimlaneBody=0;top=0;left=0;bottom=0;right=0;collapsible=0;dropTarget=0;fillColor=none;points=[[0,0.5],[1,0.5]];portConstraint=eastwest;strokeColor=inherit;fontSize=16;" parent="RmDj4SJA848HAbw2TdGj-1" vertex="1">
          <mxGeometry y="30" width="250" height="40" as="geometry" />
        </mxCell>
        <mxCell id="RmDj4SJA848HAbw2TdGj-3" value="1" style="shape=partialRectangle;html=1;whiteSpace=wrap;connectable=0;fillColor=none;top=0;left=0;bottom=0;right=0;overflow=hidden;pointerEvents=1;strokeColor=inherit;fontSize=16;" parent="RmDj4SJA848HAbw2TdGj-2" vertex="1">
          <mxGeometry width="55" height="40" as="geometry">
            <mxRectangle width="55" height="40" as="alternateBounds" />
          </mxGeometry>
        </mxCell>
        <mxCell id="RmDj4SJA848HAbw2TdGj-4" value="Define Project Scope and Requirements" style="shape=partialRectangle;html=1;whiteSpace=wrap;connectable=0;fillColor=none;top=0;left=0;bottom=0;right=0;align=left;spacingLeft=6;overflow=hidden;strokeColor=inherit;fontSize=16;" parent="RmDj4SJA848HAbw2TdGj-2" vertex="1">
          <mxGeometry x="55" width="195" height="40" as="geometry">
            <mxRectangle width="195" height="40" as="alternateBounds" />
          </mxGeometry>
        </mxCell>
        <mxCell id="RmDj4SJA848HAbw2TdGj-5" value="" style="shape=tableRow;horizontal=0;startSize=0;swimlaneHead=0;swimlaneBody=0;top=0;left=0;bottom=0;right=0;collapsible=0;dropTarget=0;fillColor=none;points=[[0,0.5],[1,0.5]];portConstraint=eastwest;strokeColor=inherit;fontSize=16;" parent="RmDj4SJA848HAbw2TdGj-1" vertex="1">
          <mxGeometry y="70" width="250" height="30" as="geometry" />
        </mxCell>
        <mxCell id="RmDj4SJA848HAbw2TdGj-6" value="2" style="shape=partialRectangle;html=1;whiteSpace=wrap;connectable=0;fillColor=none;top=0;left=0;bottom=0;right=0;overflow=hidden;strokeColor=inherit;fontSize=16;" parent="RmDj4SJA848HAbw2TdGj-5" vertex="1">
          <mxGeometry width="55" height="30" as="geometry">
            <mxRectangle width="55" height="30" as="alternateBounds" />
          </mxGeometry>
        </mxCell>
        <mxCell id="RmDj4SJA848HAbw2TdGj-7" value="Start Date : 4/11/2023" style="shape=partialRectangle;html=1;whiteSpace=wrap;connectable=0;fillColor=none;top=0;left=0;bottom=0;right=0;align=left;spacingLeft=6;overflow=hidden;strokeColor=inherit;fontSize=16;" parent="RmDj4SJA848HAbw2TdGj-5" vertex="1">
          <mxGeometry x="55" width="195" height="30" as="geometry">
            <mxRectangle width="195" height="30" as="alternateBounds" />
          </mxGeometry>
        </mxCell>
        <mxCell id="RmDj4SJA848HAbw2TdGj-8" value="" style="shape=tableRow;horizontal=0;startSize=0;swimlaneHead=0;swimlaneBody=0;top=0;left=0;bottom=0;right=0;collapsible=0;dropTarget=0;fillColor=none;points=[[0,0.5],[1,0.5]];portConstraint=eastwest;strokeColor=inherit;fontSize=16;" parent="RmDj4SJA848HAbw2TdGj-1" vertex="1">
          <mxGeometry y="100" width="250" height="30" as="geometry" />
        </mxCell>
        <mxCell id="RmDj4SJA848HAbw2TdGj-9" value="3" style="shape=partialRectangle;html=1;whiteSpace=wrap;connectable=0;fillColor=none;top=0;left=0;bottom=0;right=0;overflow=hidden;strokeColor=inherit;fontSize=16;" parent="RmDj4SJA848HAbw2TdGj-8" vertex="1">
          <mxGeometry width="55" height="30" as="geometry">
            <mxRectangle width="55" height="30" as="alternateBounds" />
          </mxGeometry>
        </mxCell>
        <mxCell id="RmDj4SJA848HAbw2TdGj-10" value="End Date : 4/18/2023" style="shape=partialRectangle;html=1;whiteSpace=wrap;connectable=0;fillColor=none;top=0;left=0;bottom=0;right=0;align=left;spacingLeft=6;overflow=hidden;strokeColor=inherit;fontSize=16;" parent="RmDj4SJA848HAbw2TdGj-8" vertex="1">
          <mxGeometry x="55" width="195" height="30" as="geometry">
            <mxRectangle width="195" height="30" as="alternateBounds" />
          </mxGeometry>
        </mxCell>
        <mxCell id="lxQGnkBti0pnb-iLvRBB-1" value="1.2" style="shape=table;startSize=30;container=1;collapsible=0;childLayout=tableLayout;fixedRows=1;rowLines=0;fontStyle=0;strokeColor=default;fontSize=16;fillColor=#FFFF66;" parent="1" vertex="1">
          <mxGeometry x="390" y="10" width="250" height="140" as="geometry" />
        </mxCell>
        <mxCell id="lxQGnkBti0pnb-iLvRBB-2" value="" style="shape=tableRow;horizontal=0;startSize=0;swimlaneHead=0;swimlaneBody=0;top=0;left=0;bottom=0;right=0;collapsible=0;dropTarget=0;fillColor=none;points=[[0,0.5],[1,0.5]];portConstraint=eastwest;strokeColor=inherit;fontSize=16;" parent="lxQGnkBti0pnb-iLvRBB-1" vertex="1">
          <mxGeometry y="30" width="250" height="40" as="geometry" />
        </mxCell>
        <mxCell id="lxQGnkBti0pnb-iLvRBB-3" value="1" style="shape=partialRectangle;html=1;whiteSpace=wrap;connectable=0;fillColor=none;top=0;left=0;bottom=0;right=0;overflow=hidden;pointerEvents=1;strokeColor=inherit;fontSize=16;" parent="lxQGnkBti0pnb-iLvRBB-2" vertex="1">
          <mxGeometry width="55" height="40" as="geometry">
            <mxRectangle width="55" height="40" as="alternateBounds" />
          </mxGeometry>
        </mxCell>
        <mxCell id="lxQGnkBti0pnb-iLvRBB-4" value="Develop Project Plan and Timeline" style="shape=partialRectangle;html=1;whiteSpace=wrap;connectable=0;fillColor=none;top=0;left=0;bottom=0;right=0;align=left;spacingLeft=6;overflow=hidden;strokeColor=inherit;fontSize=16;" parent="lxQGnkBti0pnb-iLvRBB-2" vertex="1">
          <mxGeometry x="55" width="195" height="40" as="geometry">
            <mxRectangle width="195" height="40" as="alternateBounds" />
          </mxGeometry>
        </mxCell>
        <mxCell id="lxQGnkBti0pnb-iLvRBB-5" value="" style="shape=tableRow;horizontal=0;startSize=0;swimlaneHead=0;swimlaneBody=0;top=0;left=0;bottom=0;right=0;collapsible=0;dropTarget=0;fillColor=none;points=[[0,0.5],[1,0.5]];portConstraint=eastwest;strokeColor=inherit;fontSize=16;" parent="lxQGnkBti0pnb-iLvRBB-1" vertex="1">
          <mxGeometry y="70" width="250" height="30" as="geometry" />
        </mxCell>
        <mxCell id="lxQGnkBti0pnb-iLvRBB-6" value="2" style="shape=partialRectangle;html=1;whiteSpace=wrap;connectable=0;fillColor=none;top=0;left=0;bottom=0;right=0;overflow=hidden;strokeColor=inherit;fontSize=16;" parent="lxQGnkBti0pnb-iLvRBB-5" vertex="1">
          <mxGeometry width="55" height="30" as="geometry">
            <mxRectangle width="55" height="30" as="alternateBounds" />
          </mxGeometry>
        </mxCell>
        <mxCell id="lxQGnkBti0pnb-iLvRBB-7" value="Start Date : 4/18/2023" style="shape=partialRectangle;html=1;whiteSpace=wrap;connectable=0;fillColor=none;top=0;left=0;bottom=0;right=0;align=left;spacingLeft=6;overflow=hidden;strokeColor=inherit;fontSize=16;" parent="lxQGnkBti0pnb-iLvRBB-5" vertex="1">
          <mxGeometry x="55" width="195" height="30" as="geometry">
            <mxRectangle width="195" height="30" as="alternateBounds" />
          </mxGeometry>
        </mxCell>
        <mxCell id="lxQGnkBti0pnb-iLvRBB-8" value="" style="shape=tableRow;horizontal=0;startSize=0;swimlaneHead=0;swimlaneBody=0;top=0;left=0;bottom=0;right=0;collapsible=0;dropTarget=0;fillColor=none;points=[[0,0.5],[1,0.5]];portConstraint=eastwest;strokeColor=inherit;fontSize=16;" parent="lxQGnkBti0pnb-iLvRBB-1" vertex="1">
          <mxGeometry y="100" width="250" height="30" as="geometry" />
        </mxCell>
        <mxCell id="lxQGnkBti0pnb-iLvRBB-9" value="3" style="shape=partialRectangle;html=1;whiteSpace=wrap;connectable=0;fillColor=none;top=0;left=0;bottom=0;right=0;overflow=hidden;strokeColor=inherit;fontSize=16;" parent="lxQGnkBti0pnb-iLvRBB-8" vertex="1">
          <mxGeometry width="55" height="30" as="geometry">
            <mxRectangle width="55" height="30" as="alternateBounds" />
          </mxGeometry>
        </mxCell>
        <mxCell id="lxQGnkBti0pnb-iLvRBB-10" value="End Date : 4/25/2023" style="shape=partialRectangle;html=1;whiteSpace=wrap;connectable=0;fillColor=none;top=0;left=0;bottom=0;right=0;align=left;spacingLeft=6;overflow=hidden;strokeColor=inherit;fontSize=16;" parent="lxQGnkBti0pnb-iLvRBB-8" vertex="1">
          <mxGeometry x="55" width="195" height="30" as="geometry">
            <mxRectangle width="195" height="30" as="alternateBounds" />
          </mxGeometry>
        </mxCell>
        <mxCell id="lxQGnkBti0pnb-iLvRBB-133" style="edgeStyle=orthogonalEdgeStyle;rounded=0;orthogonalLoop=1;jettySize=auto;html=1;exitX=1;exitY=0.5;exitDx=0;exitDy=0;entryX=0;entryY=0.5;entryDx=0;entryDy=0;" parent="1" source="lxQGnkBti0pnb-iLvRBB-5" target="lxQGnkBti0pnb-iLvRBB-25" edge="1">
          <mxGeometry relative="1" as="geometry" />
        </mxCell>
        <mxCell id="lxQGnkBti0pnb-iLvRBB-11" value="1.3" style="shape=table;startSize=30;container=1;collapsible=0;childLayout=tableLayout;fixedRows=1;rowLines=0;fontStyle=0;strokeColor=default;fontSize=16;" parent="1" vertex="1">
          <mxGeometry x="390" y="180" width="250" height="140" as="geometry" />
        </mxCell>
        <mxCell id="lxQGnkBti0pnb-iLvRBB-12" value="" style="shape=tableRow;horizontal=0;startSize=0;swimlaneHead=0;swimlaneBody=0;top=0;left=0;bottom=0;right=0;collapsible=0;dropTarget=0;fillColor=none;points=[[0,0.5],[1,0.5]];portConstraint=eastwest;strokeColor=inherit;fontSize=16;" parent="lxQGnkBti0pnb-iLvRBB-11" vertex="1">
          <mxGeometry y="30" width="250" height="40" as="geometry" />
        </mxCell>
        <mxCell id="lxQGnkBti0pnb-iLvRBB-13" value="1" style="shape=partialRectangle;html=1;whiteSpace=wrap;connectable=0;fillColor=none;top=0;left=0;bottom=0;right=0;overflow=hidden;pointerEvents=1;strokeColor=inherit;fontSize=16;" parent="lxQGnkBti0pnb-iLvRBB-12" vertex="1">
          <mxGeometry width="55" height="40" as="geometry">
            <mxRectangle width="55" height="40" as="alternateBounds" />
          </mxGeometry>
        </mxCell>
        <mxCell id="lxQGnkBti0pnb-iLvRBB-14" value="Define End Goal" style="shape=partialRectangle;html=1;whiteSpace=wrap;connectable=0;fillColor=none;top=0;left=0;bottom=0;right=0;align=left;spacingLeft=6;overflow=hidden;strokeColor=inherit;fontSize=16;" parent="lxQGnkBti0pnb-iLvRBB-12" vertex="1">
          <mxGeometry x="55" width="195" height="40" as="geometry">
            <mxRectangle width="195" height="40" as="alternateBounds" />
          </mxGeometry>
        </mxCell>
        <mxCell id="lxQGnkBti0pnb-iLvRBB-15" value="" style="shape=tableRow;horizontal=0;startSize=0;swimlaneHead=0;swimlaneBody=0;top=0;left=0;bottom=0;right=0;collapsible=0;dropTarget=0;fillColor=none;points=[[0,0.5],[1,0.5]];portConstraint=eastwest;strokeColor=inherit;fontSize=16;" parent="lxQGnkBti0pnb-iLvRBB-11" vertex="1">
          <mxGeometry y="70" width="250" height="30" as="geometry" />
        </mxCell>
        <mxCell id="lxQGnkBti0pnb-iLvRBB-16" value="2" style="shape=partialRectangle;html=1;whiteSpace=wrap;connectable=0;fillColor=none;top=0;left=0;bottom=0;right=0;overflow=hidden;strokeColor=inherit;fontSize=16;" parent="lxQGnkBti0pnb-iLvRBB-15" vertex="1">
          <mxGeometry width="55" height="30" as="geometry">
            <mxRectangle width="55" height="30" as="alternateBounds" />
          </mxGeometry>
        </mxCell>
        <mxCell id="lxQGnkBti0pnb-iLvRBB-17" value="Start Date : 4/18/2023" style="shape=partialRectangle;html=1;whiteSpace=wrap;connectable=0;fillColor=none;top=0;left=0;bottom=0;right=0;align=left;spacingLeft=6;overflow=hidden;strokeColor=inherit;fontSize=16;" parent="lxQGnkBti0pnb-iLvRBB-15" vertex="1">
          <mxGeometry x="55" width="195" height="30" as="geometry">
            <mxRectangle width="195" height="30" as="alternateBounds" />
          </mxGeometry>
        </mxCell>
        <mxCell id="lxQGnkBti0pnb-iLvRBB-18" value="" style="shape=tableRow;horizontal=0;startSize=0;swimlaneHead=0;swimlaneBody=0;top=0;left=0;bottom=0;right=0;collapsible=0;dropTarget=0;fillColor=none;points=[[0,0.5],[1,0.5]];portConstraint=eastwest;strokeColor=inherit;fontSize=16;" parent="lxQGnkBti0pnb-iLvRBB-11" vertex="1">
          <mxGeometry y="100" width="250" height="30" as="geometry" />
        </mxCell>
        <mxCell id="lxQGnkBti0pnb-iLvRBB-19" value="3" style="shape=partialRectangle;html=1;whiteSpace=wrap;connectable=0;fillColor=none;top=0;left=0;bottom=0;right=0;overflow=hidden;strokeColor=inherit;fontSize=16;" parent="lxQGnkBti0pnb-iLvRBB-18" vertex="1">
          <mxGeometry width="55" height="30" as="geometry">
            <mxRectangle width="55" height="30" as="alternateBounds" />
          </mxGeometry>
        </mxCell>
        <mxCell id="lxQGnkBti0pnb-iLvRBB-20" value="End Date : 4/19/2023" style="shape=partialRectangle;html=1;whiteSpace=wrap;connectable=0;fillColor=none;top=0;left=0;bottom=0;right=0;align=left;spacingLeft=6;overflow=hidden;strokeColor=inherit;fontSize=16;" parent="lxQGnkBti0pnb-iLvRBB-18" vertex="1">
          <mxGeometry x="55" width="195" height="30" as="geometry">
            <mxRectangle width="195" height="30" as="alternateBounds" />
          </mxGeometry>
        </mxCell>
        <mxCell id="lxQGnkBti0pnb-iLvRBB-21" value="2.1" style="shape=table;startSize=30;container=1;collapsible=0;childLayout=tableLayout;fixedRows=1;rowLines=0;fontStyle=0;strokeColor=default;fontSize=16;fillColor=#FFFF66;" parent="1" vertex="1">
          <mxGeometry x="770" y="100" width="250" height="140" as="geometry" />
        </mxCell>
        <mxCell id="lxQGnkBti0pnb-iLvRBB-22" value="" style="shape=tableRow;horizontal=0;startSize=0;swimlaneHead=0;swimlaneBody=0;top=0;left=0;bottom=0;right=0;collapsible=0;dropTarget=0;fillColor=none;points=[[0,0.5],[1,0.5]];portConstraint=eastwest;strokeColor=inherit;fontSize=16;" parent="lxQGnkBti0pnb-iLvRBB-21" vertex="1">
          <mxGeometry y="30" width="250" height="40" as="geometry" />
        </mxCell>
        <mxCell id="lxQGnkBti0pnb-iLvRBB-23" value="1" style="shape=partialRectangle;html=1;whiteSpace=wrap;connectable=0;fillColor=none;top=0;left=0;bottom=0;right=0;overflow=hidden;pointerEvents=1;strokeColor=inherit;fontSize=16;" parent="lxQGnkBti0pnb-iLvRBB-22" vertex="1">
          <mxGeometry width="55" height="40" as="geometry">
            <mxRectangle width="55" height="40" as="alternateBounds" />
          </mxGeometry>
        </mxCell>
        <mxCell id="lxQGnkBti0pnb-iLvRBB-24" value="Determine Relevant Information to give AI" style="shape=partialRectangle;html=1;whiteSpace=wrap;connectable=0;fillColor=none;top=0;left=0;bottom=0;right=0;align=left;spacingLeft=6;overflow=hidden;strokeColor=inherit;fontSize=16;" parent="lxQGnkBti0pnb-iLvRBB-22" vertex="1">
          <mxGeometry x="55" width="195" height="40" as="geometry">
            <mxRectangle width="195" height="40" as="alternateBounds" />
          </mxGeometry>
        </mxCell>
        <mxCell id="lxQGnkBti0pnb-iLvRBB-25" value="" style="shape=tableRow;horizontal=0;startSize=0;swimlaneHead=0;swimlaneBody=0;top=0;left=0;bottom=0;right=0;collapsible=0;dropTarget=0;fillColor=none;points=[[0,0.5],[1,0.5]];portConstraint=eastwest;strokeColor=inherit;fontSize=16;" parent="lxQGnkBti0pnb-iLvRBB-21" vertex="1">
          <mxGeometry y="70" width="250" height="30" as="geometry" />
        </mxCell>
        <mxCell id="lxQGnkBti0pnb-iLvRBB-26" value="2" style="shape=partialRectangle;html=1;whiteSpace=wrap;connectable=0;fillColor=none;top=0;left=0;bottom=0;right=0;overflow=hidden;strokeColor=inherit;fontSize=16;" parent="lxQGnkBti0pnb-iLvRBB-25" vertex="1">
          <mxGeometry width="55" height="30" as="geometry">
            <mxRectangle width="55" height="30" as="alternateBounds" />
          </mxGeometry>
        </mxCell>
        <mxCell id="lxQGnkBti0pnb-iLvRBB-27" value="Start Date : 4/25/2023" style="shape=partialRectangle;html=1;whiteSpace=wrap;connectable=0;fillColor=none;top=0;left=0;bottom=0;right=0;align=left;spacingLeft=6;overflow=hidden;strokeColor=inherit;fontSize=16;" parent="lxQGnkBti0pnb-iLvRBB-25" vertex="1">
          <mxGeometry x="55" width="195" height="30" as="geometry">
            <mxRectangle width="195" height="30" as="alternateBounds" />
          </mxGeometry>
        </mxCell>
        <mxCell id="lxQGnkBti0pnb-iLvRBB-28" value="" style="shape=tableRow;horizontal=0;startSize=0;swimlaneHead=0;swimlaneBody=0;top=0;left=0;bottom=0;right=0;collapsible=0;dropTarget=0;fillColor=none;points=[[0,0.5],[1,0.5]];portConstraint=eastwest;strokeColor=inherit;fontSize=16;" parent="lxQGnkBti0pnb-iLvRBB-21" vertex="1">
          <mxGeometry y="100" width="250" height="30" as="geometry" />
        </mxCell>
        <mxCell id="lxQGnkBti0pnb-iLvRBB-29" value="3" style="shape=partialRectangle;html=1;whiteSpace=wrap;connectable=0;fillColor=none;top=0;left=0;bottom=0;right=0;overflow=hidden;strokeColor=inherit;fontSize=16;" parent="lxQGnkBti0pnb-iLvRBB-28" vertex="1">
          <mxGeometry width="55" height="30" as="geometry">
            <mxRectangle width="55" height="30" as="alternateBounds" />
          </mxGeometry>
        </mxCell>
        <mxCell id="lxQGnkBti0pnb-iLvRBB-30" value="End Date : 5/9/2023" style="shape=partialRectangle;html=1;whiteSpace=wrap;connectable=0;fillColor=none;top=0;left=0;bottom=0;right=0;align=left;spacingLeft=6;overflow=hidden;strokeColor=inherit;fontSize=16;" parent="lxQGnkBti0pnb-iLvRBB-28" vertex="1">
          <mxGeometry x="55" width="195" height="30" as="geometry">
            <mxRectangle width="195" height="30" as="alternateBounds" />
          </mxGeometry>
        </mxCell>
        <mxCell id="lxQGnkBti0pnb-iLvRBB-135" style="edgeStyle=orthogonalEdgeStyle;rounded=0;orthogonalLoop=1;jettySize=auto;html=1;exitX=0.5;exitY=1;exitDx=0;exitDy=0;entryX=0.5;entryY=0;entryDx=0;entryDy=0;" parent="1" source="lxQGnkBti0pnb-iLvRBB-31" target="lxQGnkBti0pnb-iLvRBB-41" edge="1">
          <mxGeometry relative="1" as="geometry" />
        </mxCell>
        <mxCell id="lxQGnkBti0pnb-iLvRBB-31" value="2.2" style="shape=table;startSize=30;container=1;collapsible=0;childLayout=tableLayout;fixedRows=1;rowLines=0;fontStyle=0;strokeColor=default;fontSize=16;fillColor=#FFFF66;" parent="1" vertex="1">
          <mxGeometry x="520" y="350" width="250" height="140" as="geometry" />
        </mxCell>
        <mxCell id="lxQGnkBti0pnb-iLvRBB-32" value="" style="shape=tableRow;horizontal=0;startSize=0;swimlaneHead=0;swimlaneBody=0;top=0;left=0;bottom=0;right=0;collapsible=0;dropTarget=0;fillColor=none;points=[[0,0.5],[1,0.5]];portConstraint=eastwest;strokeColor=inherit;fontSize=16;" parent="lxQGnkBti0pnb-iLvRBB-31" vertex="1">
          <mxGeometry y="30" width="250" height="40" as="geometry" />
        </mxCell>
        <mxCell id="lxQGnkBti0pnb-iLvRBB-33" value="1" style="shape=partialRectangle;html=1;whiteSpace=wrap;connectable=0;fillColor=none;top=0;left=0;bottom=0;right=0;overflow=hidden;pointerEvents=1;strokeColor=inherit;fontSize=16;" parent="lxQGnkBti0pnb-iLvRBB-32" vertex="1">
          <mxGeometry width="55" height="40" as="geometry">
            <mxRectangle width="55" height="40" as="alternateBounds" />
          </mxGeometry>
        </mxCell>
        <mxCell id="lxQGnkBti0pnb-iLvRBB-34" value="Collect and Process Data" style="shape=partialRectangle;html=1;whiteSpace=wrap;connectable=0;fillColor=none;top=0;left=0;bottom=0;right=0;align=left;spacingLeft=6;overflow=hidden;strokeColor=inherit;fontSize=16;" parent="lxQGnkBti0pnb-iLvRBB-32" vertex="1">
          <mxGeometry x="55" width="195" height="40" as="geometry">
            <mxRectangle width="195" height="40" as="alternateBounds" />
          </mxGeometry>
        </mxCell>
        <mxCell id="lxQGnkBti0pnb-iLvRBB-35" value="" style="shape=tableRow;horizontal=0;startSize=0;swimlaneHead=0;swimlaneBody=0;top=0;left=0;bottom=0;right=0;collapsible=0;dropTarget=0;fillColor=none;points=[[0,0.5],[1,0.5]];portConstraint=eastwest;strokeColor=inherit;fontSize=16;" parent="lxQGnkBti0pnb-iLvRBB-31" vertex="1">
          <mxGeometry y="70" width="250" height="30" as="geometry" />
        </mxCell>
        <mxCell id="lxQGnkBti0pnb-iLvRBB-36" value="2" style="shape=partialRectangle;html=1;whiteSpace=wrap;connectable=0;fillColor=none;top=0;left=0;bottom=0;right=0;overflow=hidden;strokeColor=inherit;fontSize=16;" parent="lxQGnkBti0pnb-iLvRBB-35" vertex="1">
          <mxGeometry width="55" height="30" as="geometry">
            <mxRectangle width="55" height="30" as="alternateBounds" />
          </mxGeometry>
        </mxCell>
        <mxCell id="lxQGnkBti0pnb-iLvRBB-37" value="Start Date : 5/9/2023" style="shape=partialRectangle;html=1;whiteSpace=wrap;connectable=0;fillColor=none;top=0;left=0;bottom=0;right=0;align=left;spacingLeft=6;overflow=hidden;strokeColor=inherit;fontSize=16;" parent="lxQGnkBti0pnb-iLvRBB-35" vertex="1">
          <mxGeometry x="55" width="195" height="30" as="geometry">
            <mxRectangle width="195" height="30" as="alternateBounds" />
          </mxGeometry>
        </mxCell>
        <mxCell id="lxQGnkBti0pnb-iLvRBB-38" value="" style="shape=tableRow;horizontal=0;startSize=0;swimlaneHead=0;swimlaneBody=0;top=0;left=0;bottom=0;right=0;collapsible=0;dropTarget=0;fillColor=none;points=[[0,0.5],[1,0.5]];portConstraint=eastwest;strokeColor=inherit;fontSize=16;" parent="lxQGnkBti0pnb-iLvRBB-31" vertex="1">
          <mxGeometry y="100" width="250" height="30" as="geometry" />
        </mxCell>
        <mxCell id="lxQGnkBti0pnb-iLvRBB-39" value="3" style="shape=partialRectangle;html=1;whiteSpace=wrap;connectable=0;fillColor=none;top=0;left=0;bottom=0;right=0;overflow=hidden;strokeColor=inherit;fontSize=16;" parent="lxQGnkBti0pnb-iLvRBB-38" vertex="1">
          <mxGeometry width="55" height="30" as="geometry">
            <mxRectangle width="55" height="30" as="alternateBounds" />
          </mxGeometry>
        </mxCell>
        <mxCell id="lxQGnkBti0pnb-iLvRBB-40" value="End Date : 5/9/2024" style="shape=partialRectangle;html=1;whiteSpace=wrap;connectable=0;fillColor=none;top=0;left=0;bottom=0;right=0;align=left;spacingLeft=6;overflow=hidden;strokeColor=inherit;fontSize=16;" parent="lxQGnkBti0pnb-iLvRBB-38" vertex="1">
          <mxGeometry x="55" width="195" height="30" as="geometry">
            <mxRectangle width="195" height="30" as="alternateBounds" />
          </mxGeometry>
        </mxCell>
        <mxCell id="lxQGnkBti0pnb-iLvRBB-41" value="2.2.1" style="shape=table;startSize=30;container=1;collapsible=0;childLayout=tableLayout;fixedRows=1;rowLines=0;fontStyle=0;strokeColor=default;fontSize=16;fillColor=#FFFF66;" parent="1" vertex="1">
          <mxGeometry x="520" y="530" width="250" height="140" as="geometry" />
        </mxCell>
        <mxCell id="lxQGnkBti0pnb-iLvRBB-42" value="" style="shape=tableRow;horizontal=0;startSize=0;swimlaneHead=0;swimlaneBody=0;top=0;left=0;bottom=0;right=0;collapsible=0;dropTarget=0;fillColor=none;points=[[0,0.5],[1,0.5]];portConstraint=eastwest;strokeColor=inherit;fontSize=16;" parent="lxQGnkBti0pnb-iLvRBB-41" vertex="1">
          <mxGeometry y="30" width="250" height="40" as="geometry" />
        </mxCell>
        <mxCell id="lxQGnkBti0pnb-iLvRBB-43" value="1" style="shape=partialRectangle;html=1;whiteSpace=wrap;connectable=0;fillColor=none;top=0;left=0;bottom=0;right=0;overflow=hidden;pointerEvents=1;strokeColor=inherit;fontSize=16;" parent="lxQGnkBti0pnb-iLvRBB-42" vertex="1">
          <mxGeometry width="55" height="40" as="geometry">
            <mxRectangle width="55" height="40" as="alternateBounds" />
          </mxGeometry>
        </mxCell>
        <mxCell id="lxQGnkBti0pnb-iLvRBB-44" value="Clean Data" style="shape=partialRectangle;html=1;whiteSpace=wrap;connectable=0;fillColor=none;top=0;left=0;bottom=0;right=0;align=left;spacingLeft=6;overflow=hidden;strokeColor=inherit;fontSize=16;" parent="lxQGnkBti0pnb-iLvRBB-42" vertex="1">
          <mxGeometry x="55" width="195" height="40" as="geometry">
            <mxRectangle width="195" height="40" as="alternateBounds" />
          </mxGeometry>
        </mxCell>
        <mxCell id="lxQGnkBti0pnb-iLvRBB-45" value="" style="shape=tableRow;horizontal=0;startSize=0;swimlaneHead=0;swimlaneBody=0;top=0;left=0;bottom=0;right=0;collapsible=0;dropTarget=0;fillColor=none;points=[[0,0.5],[1,0.5]];portConstraint=eastwest;strokeColor=inherit;fontSize=16;" parent="lxQGnkBti0pnb-iLvRBB-41" vertex="1">
          <mxGeometry y="70" width="250" height="30" as="geometry" />
        </mxCell>
        <mxCell id="lxQGnkBti0pnb-iLvRBB-46" value="2" style="shape=partialRectangle;html=1;whiteSpace=wrap;connectable=0;fillColor=none;top=0;left=0;bottom=0;right=0;overflow=hidden;strokeColor=inherit;fontSize=16;" parent="lxQGnkBti0pnb-iLvRBB-45" vertex="1">
          <mxGeometry width="55" height="30" as="geometry">
            <mxRectangle width="55" height="30" as="alternateBounds" />
          </mxGeometry>
        </mxCell>
        <mxCell id="lxQGnkBti0pnb-iLvRBB-47" value="Start Date : 5/9/2024" style="shape=partialRectangle;html=1;whiteSpace=wrap;connectable=0;fillColor=none;top=0;left=0;bottom=0;right=0;align=left;spacingLeft=6;overflow=hidden;strokeColor=inherit;fontSize=16;" parent="lxQGnkBti0pnb-iLvRBB-45" vertex="1">
          <mxGeometry x="55" width="195" height="30" as="geometry">
            <mxRectangle width="195" height="30" as="alternateBounds" />
          </mxGeometry>
        </mxCell>
        <mxCell id="lxQGnkBti0pnb-iLvRBB-48" value="" style="shape=tableRow;horizontal=0;startSize=0;swimlaneHead=0;swimlaneBody=0;top=0;left=0;bottom=0;right=0;collapsible=0;dropTarget=0;fillColor=none;points=[[0,0.5],[1,0.5]];portConstraint=eastwest;strokeColor=inherit;fontSize=16;" parent="lxQGnkBti0pnb-iLvRBB-41" vertex="1">
          <mxGeometry y="100" width="250" height="30" as="geometry" />
        </mxCell>
        <mxCell id="lxQGnkBti0pnb-iLvRBB-49" value="3" style="shape=partialRectangle;html=1;whiteSpace=wrap;connectable=0;fillColor=none;top=0;left=0;bottom=0;right=0;overflow=hidden;strokeColor=inherit;fontSize=16;" parent="lxQGnkBti0pnb-iLvRBB-48" vertex="1">
          <mxGeometry width="55" height="30" as="geometry">
            <mxRectangle width="55" height="30" as="alternateBounds" />
          </mxGeometry>
        </mxCell>
        <mxCell id="lxQGnkBti0pnb-iLvRBB-50" value="End Date : 8/9/2024" style="shape=partialRectangle;html=1;whiteSpace=wrap;connectable=0;fillColor=none;top=0;left=0;bottom=0;right=0;align=left;spacingLeft=6;overflow=hidden;strokeColor=inherit;fontSize=16;" parent="lxQGnkBti0pnb-iLvRBB-48" vertex="1">
          <mxGeometry x="55" width="195" height="30" as="geometry">
            <mxRectangle width="195" height="30" as="alternateBounds" />
          </mxGeometry>
        </mxCell>
        <mxCell id="lxQGnkBti0pnb-iLvRBB-139" style="edgeStyle=orthogonalEdgeStyle;rounded=0;orthogonalLoop=1;jettySize=auto;html=1;exitX=0.5;exitY=1;exitDx=0;exitDy=0;entryX=0.5;entryY=0;entryDx=0;entryDy=0;" parent="1" source="lxQGnkBti0pnb-iLvRBB-51" target="lxQGnkBti0pnb-iLvRBB-61" edge="1">
          <mxGeometry relative="1" as="geometry" />
        </mxCell>
        <mxCell id="lxQGnkBti0pnb-iLvRBB-140" style="edgeStyle=orthogonalEdgeStyle;rounded=0;orthogonalLoop=1;jettySize=auto;html=1;exitX=0.5;exitY=1;exitDx=0;exitDy=0;entryX=0.5;entryY=0;entryDx=0;entryDy=0;" parent="1" source="lxQGnkBti0pnb-iLvRBB-51" target="lxQGnkBti0pnb-iLvRBB-71" edge="1">
          <mxGeometry relative="1" as="geometry" />
        </mxCell>
        <mxCell id="lxQGnkBti0pnb-iLvRBB-51" value="2.3" style="shape=table;startSize=30;container=1;collapsible=0;childLayout=tableLayout;fixedRows=1;rowLines=0;fontStyle=0;strokeColor=default;fontSize=16;fillColor=#FFFF66;" parent="1" vertex="1">
          <mxGeometry x="175" y="530" width="250" height="140" as="geometry" />
        </mxCell>
        <mxCell id="lxQGnkBti0pnb-iLvRBB-52" value="" style="shape=tableRow;horizontal=0;startSize=0;swimlaneHead=0;swimlaneBody=0;top=0;left=0;bottom=0;right=0;collapsible=0;dropTarget=0;fillColor=none;points=[[0,0.5],[1,0.5]];portConstraint=eastwest;strokeColor=inherit;fontSize=16;" parent="lxQGnkBti0pnb-iLvRBB-51" vertex="1">
          <mxGeometry y="30" width="250" height="40" as="geometry" />
        </mxCell>
        <mxCell id="lxQGnkBti0pnb-iLvRBB-53" value="1" style="shape=partialRectangle;html=1;whiteSpace=wrap;connectable=0;fillColor=none;top=0;left=0;bottom=0;right=0;overflow=hidden;pointerEvents=1;strokeColor=inherit;fontSize=16;" parent="lxQGnkBti0pnb-iLvRBB-52" vertex="1">
          <mxGeometry width="55" height="40" as="geometry">
            <mxRectangle width="55" height="40" as="alternateBounds" />
          </mxGeometry>
        </mxCell>
        <mxCell id="lxQGnkBti0pnb-iLvRBB-54" value="Label Data for Processing" style="shape=partialRectangle;html=1;whiteSpace=wrap;connectable=0;fillColor=none;top=0;left=0;bottom=0;right=0;align=left;spacingLeft=6;overflow=hidden;strokeColor=inherit;fontSize=16;" parent="lxQGnkBti0pnb-iLvRBB-52" vertex="1">
          <mxGeometry x="55" width="195" height="40" as="geometry">
            <mxRectangle width="195" height="40" as="alternateBounds" />
          </mxGeometry>
        </mxCell>
        <mxCell id="lxQGnkBti0pnb-iLvRBB-55" value="" style="shape=tableRow;horizontal=0;startSize=0;swimlaneHead=0;swimlaneBody=0;top=0;left=0;bottom=0;right=0;collapsible=0;dropTarget=0;fillColor=none;points=[[0,0.5],[1,0.5]];portConstraint=eastwest;strokeColor=inherit;fontSize=16;" parent="lxQGnkBti0pnb-iLvRBB-51" vertex="1">
          <mxGeometry y="70" width="250" height="30" as="geometry" />
        </mxCell>
        <mxCell id="lxQGnkBti0pnb-iLvRBB-56" value="2" style="shape=partialRectangle;html=1;whiteSpace=wrap;connectable=0;fillColor=none;top=0;left=0;bottom=0;right=0;overflow=hidden;strokeColor=inherit;fontSize=16;" parent="lxQGnkBti0pnb-iLvRBB-55" vertex="1">
          <mxGeometry width="55" height="30" as="geometry">
            <mxRectangle width="55" height="30" as="alternateBounds" />
          </mxGeometry>
        </mxCell>
        <mxCell id="lxQGnkBti0pnb-iLvRBB-57" value="Start Date : 8/9/2024" style="shape=partialRectangle;html=1;whiteSpace=wrap;connectable=0;fillColor=none;top=0;left=0;bottom=0;right=0;align=left;spacingLeft=6;overflow=hidden;strokeColor=inherit;fontSize=16;" parent="lxQGnkBti0pnb-iLvRBB-55" vertex="1">
          <mxGeometry x="55" width="195" height="30" as="geometry">
            <mxRectangle width="195" height="30" as="alternateBounds" />
          </mxGeometry>
        </mxCell>
        <mxCell id="lxQGnkBti0pnb-iLvRBB-58" value="" style="shape=tableRow;horizontal=0;startSize=0;swimlaneHead=0;swimlaneBody=0;top=0;left=0;bottom=0;right=0;collapsible=0;dropTarget=0;fillColor=none;points=[[0,0.5],[1,0.5]];portConstraint=eastwest;strokeColor=inherit;fontSize=16;" parent="lxQGnkBti0pnb-iLvRBB-51" vertex="1">
          <mxGeometry y="100" width="250" height="30" as="geometry" />
        </mxCell>
        <mxCell id="lxQGnkBti0pnb-iLvRBB-59" value="3" style="shape=partialRectangle;html=1;whiteSpace=wrap;connectable=0;fillColor=none;top=0;left=0;bottom=0;right=0;overflow=hidden;strokeColor=inherit;fontSize=16;" parent="lxQGnkBti0pnb-iLvRBB-58" vertex="1">
          <mxGeometry width="55" height="30" as="geometry">
            <mxRectangle width="55" height="30" as="alternateBounds" />
          </mxGeometry>
        </mxCell>
        <mxCell id="lxQGnkBti0pnb-iLvRBB-60" value="End Date : 11/9/2024" style="shape=partialRectangle;html=1;whiteSpace=wrap;connectable=0;fillColor=none;top=0;left=0;bottom=0;right=0;align=left;spacingLeft=6;overflow=hidden;strokeColor=inherit;fontSize=16;" parent="lxQGnkBti0pnb-iLvRBB-58" vertex="1">
          <mxGeometry x="55" width="195" height="30" as="geometry">
            <mxRectangle width="195" height="30" as="alternateBounds" />
          </mxGeometry>
        </mxCell>
        <mxCell id="lxQGnkBti0pnb-iLvRBB-141" style="edgeStyle=orthogonalEdgeStyle;rounded=0;orthogonalLoop=1;jettySize=auto;html=1;exitX=0.5;exitY=1;exitDx=0;exitDy=0;entryX=0;entryY=0.5;entryDx=0;entryDy=0;" parent="1" source="lxQGnkBti0pnb-iLvRBB-61" target="lxQGnkBti0pnb-iLvRBB-85" edge="1">
          <mxGeometry relative="1" as="geometry" />
        </mxCell>
        <mxCell id="lxQGnkBti0pnb-iLvRBB-61" value="3.1" style="shape=table;startSize=30;container=1;collapsible=0;childLayout=tableLayout;fixedRows=1;rowLines=0;fontStyle=0;strokeColor=default;fontSize=16;fillColor=#FFFF66;" parent="1" vertex="1">
          <mxGeometry x="30" y="790" width="250" height="140" as="geometry" />
        </mxCell>
        <mxCell id="lxQGnkBti0pnb-iLvRBB-62" value="" style="shape=tableRow;horizontal=0;startSize=0;swimlaneHead=0;swimlaneBody=0;top=0;left=0;bottom=0;right=0;collapsible=0;dropTarget=0;fillColor=none;points=[[0,0.5],[1,0.5]];portConstraint=eastwest;strokeColor=inherit;fontSize=16;" parent="lxQGnkBti0pnb-iLvRBB-61" vertex="1">
          <mxGeometry y="30" width="250" height="40" as="geometry" />
        </mxCell>
        <mxCell id="lxQGnkBti0pnb-iLvRBB-63" value="1" style="shape=partialRectangle;html=1;whiteSpace=wrap;connectable=0;fillColor=none;top=0;left=0;bottom=0;right=0;overflow=hidden;pointerEvents=1;strokeColor=inherit;fontSize=16;" parent="lxQGnkBti0pnb-iLvRBB-62" vertex="1">
          <mxGeometry width="55" height="40" as="geometry">
            <mxRectangle width="55" height="40" as="alternateBounds" />
          </mxGeometry>
        </mxCell>
        <mxCell id="lxQGnkBti0pnb-iLvRBB-64" value="Develop AI Model" style="shape=partialRectangle;html=1;whiteSpace=wrap;connectable=0;fillColor=none;top=0;left=0;bottom=0;right=0;align=left;spacingLeft=6;overflow=hidden;strokeColor=inherit;fontSize=16;" parent="lxQGnkBti0pnb-iLvRBB-62" vertex="1">
          <mxGeometry x="55" width="195" height="40" as="geometry">
            <mxRectangle width="195" height="40" as="alternateBounds" />
          </mxGeometry>
        </mxCell>
        <mxCell id="lxQGnkBti0pnb-iLvRBB-65" value="" style="shape=tableRow;horizontal=0;startSize=0;swimlaneHead=0;swimlaneBody=0;top=0;left=0;bottom=0;right=0;collapsible=0;dropTarget=0;fillColor=none;points=[[0,0.5],[1,0.5]];portConstraint=eastwest;strokeColor=inherit;fontSize=16;" parent="lxQGnkBti0pnb-iLvRBB-61" vertex="1">
          <mxGeometry y="70" width="250" height="30" as="geometry" />
        </mxCell>
        <mxCell id="lxQGnkBti0pnb-iLvRBB-66" value="2" style="shape=partialRectangle;html=1;whiteSpace=wrap;connectable=0;fillColor=none;top=0;left=0;bottom=0;right=0;overflow=hidden;strokeColor=inherit;fontSize=16;" parent="lxQGnkBti0pnb-iLvRBB-65" vertex="1">
          <mxGeometry width="55" height="30" as="geometry">
            <mxRectangle width="55" height="30" as="alternateBounds" />
          </mxGeometry>
        </mxCell>
        <mxCell id="lxQGnkBti0pnb-iLvRBB-67" value="Start Date : 11/9/2024" style="shape=partialRectangle;html=1;whiteSpace=wrap;connectable=0;fillColor=none;top=0;left=0;bottom=0;right=0;align=left;spacingLeft=6;overflow=hidden;strokeColor=inherit;fontSize=16;" parent="lxQGnkBti0pnb-iLvRBB-65" vertex="1">
          <mxGeometry x="55" width="195" height="30" as="geometry">
            <mxRectangle width="195" height="30" as="alternateBounds" />
          </mxGeometry>
        </mxCell>
        <mxCell id="lxQGnkBti0pnb-iLvRBB-68" value="" style="shape=tableRow;horizontal=0;startSize=0;swimlaneHead=0;swimlaneBody=0;top=0;left=0;bottom=0;right=0;collapsible=0;dropTarget=0;fillColor=none;points=[[0,0.5],[1,0.5]];portConstraint=eastwest;strokeColor=inherit;fontSize=16;" parent="lxQGnkBti0pnb-iLvRBB-61" vertex="1">
          <mxGeometry y="100" width="250" height="30" as="geometry" />
        </mxCell>
        <mxCell id="lxQGnkBti0pnb-iLvRBB-69" value="3" style="shape=partialRectangle;html=1;whiteSpace=wrap;connectable=0;fillColor=none;top=0;left=0;bottom=0;right=0;overflow=hidden;strokeColor=inherit;fontSize=16;" parent="lxQGnkBti0pnb-iLvRBB-68" vertex="1">
          <mxGeometry width="55" height="30" as="geometry">
            <mxRectangle width="55" height="30" as="alternateBounds" />
          </mxGeometry>
        </mxCell>
        <mxCell id="lxQGnkBti0pnb-iLvRBB-70" value="End Date : 3/9/2025" style="shape=partialRectangle;html=1;whiteSpace=wrap;connectable=0;fillColor=none;top=0;left=0;bottom=0;right=0;align=left;spacingLeft=6;overflow=hidden;strokeColor=inherit;fontSize=16;" parent="lxQGnkBti0pnb-iLvRBB-68" vertex="1">
          <mxGeometry x="55" width="195" height="30" as="geometry">
            <mxRectangle width="195" height="30" as="alternateBounds" />
          </mxGeometry>
        </mxCell>
        <mxCell id="lxQGnkBti0pnb-iLvRBB-143" style="edgeStyle=orthogonalEdgeStyle;rounded=0;orthogonalLoop=1;jettySize=auto;html=1;exitX=0.5;exitY=1;exitDx=0;exitDy=0;entryX=0;entryY=0.5;entryDx=0;entryDy=0;" parent="1" source="lxQGnkBti0pnb-iLvRBB-71" target="lxQGnkBti0pnb-iLvRBB-85" edge="1">
          <mxGeometry relative="1" as="geometry" />
        </mxCell>
        <mxCell id="lxQGnkBti0pnb-iLvRBB-71" value="3.2" style="shape=table;startSize=30;container=1;collapsible=0;childLayout=tableLayout;fixedRows=1;rowLines=0;fontStyle=0;strokeColor=default;fontSize=16;" parent="1" vertex="1">
          <mxGeometry x="330" y="790" width="250" height="140" as="geometry" />
        </mxCell>
        <mxCell id="lxQGnkBti0pnb-iLvRBB-72" value="" style="shape=tableRow;horizontal=0;startSize=0;swimlaneHead=0;swimlaneBody=0;top=0;left=0;bottom=0;right=0;collapsible=0;dropTarget=0;fillColor=none;points=[[0,0.5],[1,0.5]];portConstraint=eastwest;strokeColor=inherit;fontSize=16;" parent="lxQGnkBti0pnb-iLvRBB-71" vertex="1">
          <mxGeometry y="30" width="250" height="40" as="geometry" />
        </mxCell>
        <mxCell id="lxQGnkBti0pnb-iLvRBB-73" value="1" style="shape=partialRectangle;html=1;whiteSpace=wrap;connectable=0;fillColor=none;top=0;left=0;bottom=0;right=0;overflow=hidden;pointerEvents=1;strokeColor=inherit;fontSize=16;" parent="lxQGnkBti0pnb-iLvRBB-72" vertex="1">
          <mxGeometry width="55" height="40" as="geometry">
            <mxRectangle width="55" height="40" as="alternateBounds" />
          </mxGeometry>
        </mxCell>
        <mxCell id="lxQGnkBti0pnb-iLvRBB-74" value="Select Machine Learning Algorithm" style="shape=partialRectangle;html=1;whiteSpace=wrap;connectable=0;fillColor=none;top=0;left=0;bottom=0;right=0;align=left;spacingLeft=6;overflow=hidden;strokeColor=inherit;fontSize=16;" parent="lxQGnkBti0pnb-iLvRBB-72" vertex="1">
          <mxGeometry x="55" width="195" height="40" as="geometry">
            <mxRectangle width="195" height="40" as="alternateBounds" />
          </mxGeometry>
        </mxCell>
        <mxCell id="lxQGnkBti0pnb-iLvRBB-75" value="" style="shape=tableRow;horizontal=0;startSize=0;swimlaneHead=0;swimlaneBody=0;top=0;left=0;bottom=0;right=0;collapsible=0;dropTarget=0;fillColor=none;points=[[0,0.5],[1,0.5]];portConstraint=eastwest;strokeColor=inherit;fontSize=16;" parent="lxQGnkBti0pnb-iLvRBB-71" vertex="1">
          <mxGeometry y="70" width="250" height="30" as="geometry" />
        </mxCell>
        <mxCell id="lxQGnkBti0pnb-iLvRBB-76" value="2" style="shape=partialRectangle;html=1;whiteSpace=wrap;connectable=0;fillColor=none;top=0;left=0;bottom=0;right=0;overflow=hidden;strokeColor=inherit;fontSize=16;" parent="lxQGnkBti0pnb-iLvRBB-75" vertex="1">
          <mxGeometry width="55" height="30" as="geometry">
            <mxRectangle width="55" height="30" as="alternateBounds" />
          </mxGeometry>
        </mxCell>
        <mxCell id="lxQGnkBti0pnb-iLvRBB-77" value="Start Date : 11/9/2024" style="shape=partialRectangle;html=1;whiteSpace=wrap;connectable=0;fillColor=none;top=0;left=0;bottom=0;right=0;align=left;spacingLeft=6;overflow=hidden;strokeColor=inherit;fontSize=16;" parent="lxQGnkBti0pnb-iLvRBB-75" vertex="1">
          <mxGeometry x="55" width="195" height="30" as="geometry">
            <mxRectangle width="195" height="30" as="alternateBounds" />
          </mxGeometry>
        </mxCell>
        <mxCell id="lxQGnkBti0pnb-iLvRBB-78" value="" style="shape=tableRow;horizontal=0;startSize=0;swimlaneHead=0;swimlaneBody=0;top=0;left=0;bottom=0;right=0;collapsible=0;dropTarget=0;fillColor=none;points=[[0,0.5],[1,0.5]];portConstraint=eastwest;strokeColor=inherit;fontSize=16;" parent="lxQGnkBti0pnb-iLvRBB-71" vertex="1">
          <mxGeometry y="100" width="250" height="30" as="geometry" />
        </mxCell>
        <mxCell id="lxQGnkBti0pnb-iLvRBB-79" value="3" style="shape=partialRectangle;html=1;whiteSpace=wrap;connectable=0;fillColor=none;top=0;left=0;bottom=0;right=0;overflow=hidden;strokeColor=inherit;fontSize=16;" parent="lxQGnkBti0pnb-iLvRBB-78" vertex="1">
          <mxGeometry width="55" height="30" as="geometry">
            <mxRectangle width="55" height="30" as="alternateBounds" />
          </mxGeometry>
        </mxCell>
        <mxCell id="lxQGnkBti0pnb-iLvRBB-80" value="End Date : 11/16/2024" style="shape=partialRectangle;html=1;whiteSpace=wrap;connectable=0;fillColor=none;top=0;left=0;bottom=0;right=0;align=left;spacingLeft=6;overflow=hidden;strokeColor=inherit;fontSize=16;" parent="lxQGnkBti0pnb-iLvRBB-78" vertex="1">
          <mxGeometry x="55" width="195" height="30" as="geometry">
            <mxRectangle width="195" height="30" as="alternateBounds" />
          </mxGeometry>
        </mxCell>
        <mxCell id="lxQGnkBti0pnb-iLvRBB-81" value="3.3" style="shape=table;startSize=30;container=1;collapsible=0;childLayout=tableLayout;fixedRows=1;rowLines=0;fontStyle=0;strokeColor=default;fontSize=16;fillColor=#FFFF66;" parent="1" vertex="1">
          <mxGeometry x="640" y="880" width="250" height="150" as="geometry" />
        </mxCell>
        <mxCell id="lxQGnkBti0pnb-iLvRBB-82" value="" style="shape=tableRow;horizontal=0;startSize=0;swimlaneHead=0;swimlaneBody=0;top=0;left=0;bottom=0;right=0;collapsible=0;dropTarget=0;fillColor=none;points=[[0,0.5],[1,0.5]];portConstraint=eastwest;strokeColor=inherit;fontSize=16;" parent="lxQGnkBti0pnb-iLvRBB-81" vertex="1">
          <mxGeometry y="30" width="250" height="50" as="geometry" />
        </mxCell>
        <mxCell id="lxQGnkBti0pnb-iLvRBB-83" value="1" style="shape=partialRectangle;html=1;whiteSpace=wrap;connectable=0;fillColor=none;top=0;left=0;bottom=0;right=0;overflow=hidden;pointerEvents=1;strokeColor=inherit;fontSize=16;" parent="lxQGnkBti0pnb-iLvRBB-82" vertex="1">
          <mxGeometry width="55" height="50" as="geometry">
            <mxRectangle width="55" height="50" as="alternateBounds" />
          </mxGeometry>
        </mxCell>
        <mxCell id="lxQGnkBti0pnb-iLvRBB-84" value="Train Model with Machine Learning Algorithm" style="shape=partialRectangle;html=1;whiteSpace=wrap;connectable=0;fillColor=none;top=0;left=0;bottom=0;right=0;align=left;spacingLeft=6;overflow=hidden;strokeColor=inherit;fontSize=16;" parent="lxQGnkBti0pnb-iLvRBB-82" vertex="1">
          <mxGeometry x="55" width="195" height="50" as="geometry">
            <mxRectangle width="195" height="50" as="alternateBounds" />
          </mxGeometry>
        </mxCell>
        <mxCell id="lxQGnkBti0pnb-iLvRBB-85" value="" style="shape=tableRow;horizontal=0;startSize=0;swimlaneHead=0;swimlaneBody=0;top=0;left=0;bottom=0;right=0;collapsible=0;dropTarget=0;fillColor=none;points=[[0,0.5],[1,0.5]];portConstraint=eastwest;strokeColor=inherit;fontSize=16;" parent="lxQGnkBti0pnb-iLvRBB-81" vertex="1">
          <mxGeometry y="80" width="250" height="30" as="geometry" />
        </mxCell>
        <mxCell id="lxQGnkBti0pnb-iLvRBB-86" value="2" style="shape=partialRectangle;html=1;whiteSpace=wrap;connectable=0;fillColor=none;top=0;left=0;bottom=0;right=0;overflow=hidden;strokeColor=inherit;fontSize=16;" parent="lxQGnkBti0pnb-iLvRBB-85" vertex="1">
          <mxGeometry width="55" height="30" as="geometry">
            <mxRectangle width="55" height="30" as="alternateBounds" />
          </mxGeometry>
        </mxCell>
        <mxCell id="lxQGnkBti0pnb-iLvRBB-87" value="Start Date : 3/9/2025" style="shape=partialRectangle;html=1;whiteSpace=wrap;connectable=0;fillColor=none;top=0;left=0;bottom=0;right=0;align=left;spacingLeft=6;overflow=hidden;strokeColor=inherit;fontSize=16;" parent="lxQGnkBti0pnb-iLvRBB-85" vertex="1">
          <mxGeometry x="55" width="195" height="30" as="geometry">
            <mxRectangle width="195" height="30" as="alternateBounds" />
          </mxGeometry>
        </mxCell>
        <mxCell id="lxQGnkBti0pnb-iLvRBB-88" value="" style="shape=tableRow;horizontal=0;startSize=0;swimlaneHead=0;swimlaneBody=0;top=0;left=0;bottom=0;right=0;collapsible=0;dropTarget=0;fillColor=none;points=[[0,0.5],[1,0.5]];portConstraint=eastwest;strokeColor=inherit;fontSize=16;" parent="lxQGnkBti0pnb-iLvRBB-81" vertex="1">
          <mxGeometry y="110" width="250" height="30" as="geometry" />
        </mxCell>
        <mxCell id="lxQGnkBti0pnb-iLvRBB-89" value="3" style="shape=partialRectangle;html=1;whiteSpace=wrap;connectable=0;fillColor=none;top=0;left=0;bottom=0;right=0;overflow=hidden;strokeColor=inherit;fontSize=16;" parent="lxQGnkBti0pnb-iLvRBB-88" vertex="1">
          <mxGeometry width="55" height="30" as="geometry">
            <mxRectangle width="55" height="30" as="alternateBounds" />
          </mxGeometry>
        </mxCell>
        <mxCell id="lxQGnkBti0pnb-iLvRBB-90" value="End Date : 8/9/2025" style="shape=partialRectangle;html=1;whiteSpace=wrap;connectable=0;fillColor=none;top=0;left=0;bottom=0;right=0;align=left;spacingLeft=6;overflow=hidden;strokeColor=inherit;fontSize=16;" parent="lxQGnkBti0pnb-iLvRBB-88" vertex="1">
          <mxGeometry x="55" width="195" height="30" as="geometry">
            <mxRectangle width="195" height="30" as="alternateBounds" />
          </mxGeometry>
        </mxCell>
        <mxCell id="uHwocxVgYeCJ4W9Rpe8--1" style="edgeStyle=orthogonalEdgeStyle;rounded=0;orthogonalLoop=1;jettySize=auto;html=1;exitX=0.5;exitY=1;exitDx=0;exitDy=0;entryX=1;entryY=0.5;entryDx=0;entryDy=0;" parent="1" source="lxQGnkBti0pnb-iLvRBB-91" target="lxQGnkBti0pnb-iLvRBB-105" edge="1">
          <mxGeometry relative="1" as="geometry" />
        </mxCell>
        <mxCell id="uHwocxVgYeCJ4W9Rpe8--3" style="edgeStyle=orthogonalEdgeStyle;rounded=0;orthogonalLoop=1;jettySize=auto;html=1;exitX=0.5;exitY=1;exitDx=0;exitDy=0;entryX=1;entryY=0.5;entryDx=0;entryDy=0;" parent="1" source="lxQGnkBti0pnb-iLvRBB-91" target="lxQGnkBti0pnb-iLvRBB-115" edge="1">
          <mxGeometry relative="1" as="geometry">
            <Array as="points">
              <mxPoint x="1095" y="1345" />
            </Array>
          </mxGeometry>
        </mxCell>
        <mxCell id="lxQGnkBti0pnb-iLvRBB-91" value="3.4" style="shape=table;startSize=30;container=1;collapsible=0;childLayout=tableLayout;fixedRows=1;rowLines=0;fontStyle=0;strokeColor=default;fontSize=16;fillColor=#FFFF66;" parent="1" vertex="1">
          <mxGeometry x="970" y="890" width="250" height="140" as="geometry" />
        </mxCell>
        <mxCell id="lxQGnkBti0pnb-iLvRBB-92" value="" style="shape=tableRow;horizontal=0;startSize=0;swimlaneHead=0;swimlaneBody=0;top=0;left=0;bottom=0;right=0;collapsible=0;dropTarget=0;fillColor=none;points=[[0,0.5],[1,0.5]];portConstraint=eastwest;strokeColor=inherit;fontSize=16;" parent="lxQGnkBti0pnb-iLvRBB-91" vertex="1">
          <mxGeometry y="30" width="250" height="40" as="geometry" />
        </mxCell>
        <mxCell id="lxQGnkBti0pnb-iLvRBB-93" value="1" style="shape=partialRectangle;html=1;whiteSpace=wrap;connectable=0;fillColor=none;top=0;left=0;bottom=0;right=0;overflow=hidden;pointerEvents=1;strokeColor=inherit;fontSize=16;" parent="lxQGnkBti0pnb-iLvRBB-92" vertex="1">
          <mxGeometry width="55" height="40" as="geometry">
            <mxRectangle width="55" height="40" as="alternateBounds" />
          </mxGeometry>
        </mxCell>
        <mxCell id="lxQGnkBti0pnb-iLvRBB-94" value="Test AI for Accuracy" style="shape=partialRectangle;html=1;whiteSpace=wrap;connectable=0;fillColor=none;top=0;left=0;bottom=0;right=0;align=left;spacingLeft=6;overflow=hidden;strokeColor=inherit;fontSize=16;" parent="lxQGnkBti0pnb-iLvRBB-92" vertex="1">
          <mxGeometry x="55" width="195" height="40" as="geometry">
            <mxRectangle width="195" height="40" as="alternateBounds" />
          </mxGeometry>
        </mxCell>
        <mxCell id="lxQGnkBti0pnb-iLvRBB-95" value="" style="shape=tableRow;horizontal=0;startSize=0;swimlaneHead=0;swimlaneBody=0;top=0;left=0;bottom=0;right=0;collapsible=0;dropTarget=0;fillColor=none;points=[[0,0.5],[1,0.5]];portConstraint=eastwest;strokeColor=inherit;fontSize=16;" parent="lxQGnkBti0pnb-iLvRBB-91" vertex="1">
          <mxGeometry y="70" width="250" height="30" as="geometry" />
        </mxCell>
        <mxCell id="lxQGnkBti0pnb-iLvRBB-96" value="2" style="shape=partialRectangle;html=1;whiteSpace=wrap;connectable=0;fillColor=none;top=0;left=0;bottom=0;right=0;overflow=hidden;strokeColor=inherit;fontSize=16;" parent="lxQGnkBti0pnb-iLvRBB-95" vertex="1">
          <mxGeometry width="55" height="30" as="geometry">
            <mxRectangle width="55" height="30" as="alternateBounds" />
          </mxGeometry>
        </mxCell>
        <mxCell id="lxQGnkBti0pnb-iLvRBB-97" value="Start Date : 8/9/2025" style="shape=partialRectangle;html=1;whiteSpace=wrap;connectable=0;fillColor=none;top=0;left=0;bottom=0;right=0;align=left;spacingLeft=6;overflow=hidden;strokeColor=inherit;fontSize=16;" parent="lxQGnkBti0pnb-iLvRBB-95" vertex="1">
          <mxGeometry x="55" width="195" height="30" as="geometry">
            <mxRectangle width="195" height="30" as="alternateBounds" />
          </mxGeometry>
        </mxCell>
        <mxCell id="lxQGnkBti0pnb-iLvRBB-98" value="" style="shape=tableRow;horizontal=0;startSize=0;swimlaneHead=0;swimlaneBody=0;top=0;left=0;bottom=0;right=0;collapsible=0;dropTarget=0;fillColor=none;points=[[0,0.5],[1,0.5]];portConstraint=eastwest;strokeColor=inherit;fontSize=16;" parent="lxQGnkBti0pnb-iLvRBB-91" vertex="1">
          <mxGeometry y="100" width="250" height="30" as="geometry" />
        </mxCell>
        <mxCell id="lxQGnkBti0pnb-iLvRBB-99" value="3" style="shape=partialRectangle;html=1;whiteSpace=wrap;connectable=0;fillColor=none;top=0;left=0;bottom=0;right=0;overflow=hidden;strokeColor=inherit;fontSize=16;" parent="lxQGnkBti0pnb-iLvRBB-98" vertex="1">
          <mxGeometry width="55" height="30" as="geometry">
            <mxRectangle width="55" height="30" as="alternateBounds" />
          </mxGeometry>
        </mxCell>
        <mxCell id="lxQGnkBti0pnb-iLvRBB-100" value="End Date : 2/9/2026" style="shape=partialRectangle;html=1;whiteSpace=wrap;connectable=0;fillColor=none;top=0;left=0;bottom=0;right=0;align=left;spacingLeft=6;overflow=hidden;strokeColor=inherit;fontSize=16;" parent="lxQGnkBti0pnb-iLvRBB-98" vertex="1">
          <mxGeometry x="55" width="195" height="30" as="geometry">
            <mxRectangle width="195" height="30" as="alternateBounds" />
          </mxGeometry>
        </mxCell>
        <mxCell id="lxQGnkBti0pnb-iLvRBB-101" value="4.1" style="shape=table;startSize=30;container=1;collapsible=0;childLayout=tableLayout;fixedRows=1;rowLines=0;fontStyle=0;strokeColor=default;fontSize=16;fillColor=#FFFF66;" parent="1" vertex="1">
          <mxGeometry x="640" y="1060" width="250" height="140" as="geometry" />
        </mxCell>
        <mxCell id="lxQGnkBti0pnb-iLvRBB-102" value="" style="shape=tableRow;horizontal=0;startSize=0;swimlaneHead=0;swimlaneBody=0;top=0;left=0;bottom=0;right=0;collapsible=0;dropTarget=0;fillColor=none;points=[[0,0.5],[1,0.5]];portConstraint=eastwest;strokeColor=inherit;fontSize=16;" parent="lxQGnkBti0pnb-iLvRBB-101" vertex="1">
          <mxGeometry y="30" width="250" height="40" as="geometry" />
        </mxCell>
        <mxCell id="lxQGnkBti0pnb-iLvRBB-103" value="1" style="shape=partialRectangle;html=1;whiteSpace=wrap;connectable=0;fillColor=none;top=0;left=0;bottom=0;right=0;overflow=hidden;pointerEvents=1;strokeColor=inherit;fontSize=16;" parent="lxQGnkBti0pnb-iLvRBB-102" vertex="1">
          <mxGeometry width="55" height="40" as="geometry">
            <mxRectangle width="55" height="40" as="alternateBounds" />
          </mxGeometry>
        </mxCell>
        <mxCell id="lxQGnkBti0pnb-iLvRBB-104" value="Develop API for AI Output" style="shape=partialRectangle;html=1;whiteSpace=wrap;connectable=0;fillColor=none;top=0;left=0;bottom=0;right=0;align=left;spacingLeft=6;overflow=hidden;strokeColor=inherit;fontSize=16;" parent="lxQGnkBti0pnb-iLvRBB-102" vertex="1">
          <mxGeometry x="55" width="195" height="40" as="geometry">
            <mxRectangle width="195" height="40" as="alternateBounds" />
          </mxGeometry>
        </mxCell>
        <mxCell id="lxQGnkBti0pnb-iLvRBB-105" value="" style="shape=tableRow;horizontal=0;startSize=0;swimlaneHead=0;swimlaneBody=0;top=0;left=0;bottom=0;right=0;collapsible=0;dropTarget=0;fillColor=none;points=[[0,0.5],[1,0.5]];portConstraint=eastwest;strokeColor=inherit;fontSize=16;" parent="lxQGnkBti0pnb-iLvRBB-101" vertex="1">
          <mxGeometry y="70" width="250" height="30" as="geometry" />
        </mxCell>
        <mxCell id="lxQGnkBti0pnb-iLvRBB-106" value="2" style="shape=partialRectangle;html=1;whiteSpace=wrap;connectable=0;fillColor=none;top=0;left=0;bottom=0;right=0;overflow=hidden;strokeColor=inherit;fontSize=16;" parent="lxQGnkBti0pnb-iLvRBB-105" vertex="1">
          <mxGeometry width="55" height="30" as="geometry">
            <mxRectangle width="55" height="30" as="alternateBounds" />
          </mxGeometry>
        </mxCell>
        <mxCell id="lxQGnkBti0pnb-iLvRBB-107" value="Start Date : 2/9/2026" style="shape=partialRectangle;html=1;whiteSpace=wrap;connectable=0;fillColor=none;top=0;left=0;bottom=0;right=0;align=left;spacingLeft=6;overflow=hidden;strokeColor=inherit;fontSize=16;" parent="lxQGnkBti0pnb-iLvRBB-105" vertex="1">
          <mxGeometry x="55" width="195" height="30" as="geometry">
            <mxRectangle width="195" height="30" as="alternateBounds" />
          </mxGeometry>
        </mxCell>
        <mxCell id="lxQGnkBti0pnb-iLvRBB-108" value="" style="shape=tableRow;horizontal=0;startSize=0;swimlaneHead=0;swimlaneBody=0;top=0;left=0;bottom=0;right=0;collapsible=0;dropTarget=0;fillColor=none;points=[[0,0.5],[1,0.5]];portConstraint=eastwest;strokeColor=inherit;fontSize=16;" parent="lxQGnkBti0pnb-iLvRBB-101" vertex="1">
          <mxGeometry y="100" width="250" height="30" as="geometry" />
        </mxCell>
        <mxCell id="lxQGnkBti0pnb-iLvRBB-109" value="3" style="shape=partialRectangle;html=1;whiteSpace=wrap;connectable=0;fillColor=none;top=0;left=0;bottom=0;right=0;overflow=hidden;strokeColor=inherit;fontSize=16;" parent="lxQGnkBti0pnb-iLvRBB-108" vertex="1">
          <mxGeometry width="55" height="30" as="geometry">
            <mxRectangle width="55" height="30" as="alternateBounds" />
          </mxGeometry>
        </mxCell>
        <mxCell id="lxQGnkBti0pnb-iLvRBB-110" value="End Date : 3/9/2026" style="shape=partialRectangle;html=1;whiteSpace=wrap;connectable=0;fillColor=none;top=0;left=0;bottom=0;right=0;align=left;spacingLeft=6;overflow=hidden;strokeColor=inherit;fontSize=16;" parent="lxQGnkBti0pnb-iLvRBB-108" vertex="1">
          <mxGeometry x="55" width="195" height="30" as="geometry">
            <mxRectangle width="195" height="30" as="alternateBounds" />
          </mxGeometry>
        </mxCell>
        <mxCell id="lxQGnkBti0pnb-iLvRBB-111" value="4.2" style="shape=table;startSize=30;container=1;collapsible=0;childLayout=tableLayout;fixedRows=1;rowLines=0;fontStyle=0;strokeColor=default;fontSize=16;" parent="1" vertex="1">
          <mxGeometry x="640" y="1260" width="250" height="140" as="geometry" />
        </mxCell>
        <mxCell id="lxQGnkBti0pnb-iLvRBB-112" value="" style="shape=tableRow;horizontal=0;startSize=0;swimlaneHead=0;swimlaneBody=0;top=0;left=0;bottom=0;right=0;collapsible=0;dropTarget=0;fillColor=none;points=[[0,0.5],[1,0.5]];portConstraint=eastwest;strokeColor=inherit;fontSize=16;" parent="lxQGnkBti0pnb-iLvRBB-111" vertex="1">
          <mxGeometry y="30" width="250" height="40" as="geometry" />
        </mxCell>
        <mxCell id="lxQGnkBti0pnb-iLvRBB-113" value="1" style="shape=partialRectangle;html=1;whiteSpace=wrap;connectable=0;fillColor=none;top=0;left=0;bottom=0;right=0;overflow=hidden;pointerEvents=1;strokeColor=inherit;fontSize=16;" parent="lxQGnkBti0pnb-iLvRBB-112" vertex="1">
          <mxGeometry width="55" height="40" as="geometry">
            <mxRectangle width="55" height="40" as="alternateBounds" />
          </mxGeometry>
        </mxCell>
        <mxCell id="lxQGnkBti0pnb-iLvRBB-114" value="Create Documentation and User Manuals" style="shape=partialRectangle;html=1;whiteSpace=wrap;connectable=0;fillColor=none;top=0;left=0;bottom=0;right=0;align=left;spacingLeft=6;overflow=hidden;strokeColor=inherit;fontSize=16;" parent="lxQGnkBti0pnb-iLvRBB-112" vertex="1">
          <mxGeometry x="55" width="195" height="40" as="geometry">
            <mxRectangle width="195" height="40" as="alternateBounds" />
          </mxGeometry>
        </mxCell>
        <mxCell id="lxQGnkBti0pnb-iLvRBB-115" value="" style="shape=tableRow;horizontal=0;startSize=0;swimlaneHead=0;swimlaneBody=0;top=0;left=0;bottom=0;right=0;collapsible=0;dropTarget=0;fillColor=none;points=[[0,0.5],[1,0.5]];portConstraint=eastwest;strokeColor=inherit;fontSize=16;" parent="lxQGnkBti0pnb-iLvRBB-111" vertex="1">
          <mxGeometry y="70" width="250" height="30" as="geometry" />
        </mxCell>
        <mxCell id="lxQGnkBti0pnb-iLvRBB-116" value="2" style="shape=partialRectangle;html=1;whiteSpace=wrap;connectable=0;fillColor=none;top=0;left=0;bottom=0;right=0;overflow=hidden;strokeColor=inherit;fontSize=16;" parent="lxQGnkBti0pnb-iLvRBB-115" vertex="1">
          <mxGeometry width="55" height="30" as="geometry">
            <mxRectangle width="55" height="30" as="alternateBounds" />
          </mxGeometry>
        </mxCell>
        <mxCell id="lxQGnkBti0pnb-iLvRBB-117" value="Start Date : 2/9/2026" style="shape=partialRectangle;html=1;whiteSpace=wrap;connectable=0;fillColor=none;top=0;left=0;bottom=0;right=0;align=left;spacingLeft=6;overflow=hidden;strokeColor=inherit;fontSize=16;" parent="lxQGnkBti0pnb-iLvRBB-115" vertex="1">
          <mxGeometry x="55" width="195" height="30" as="geometry">
            <mxRectangle width="195" height="30" as="alternateBounds" />
          </mxGeometry>
        </mxCell>
        <mxCell id="lxQGnkBti0pnb-iLvRBB-118" value="" style="shape=tableRow;horizontal=0;startSize=0;swimlaneHead=0;swimlaneBody=0;top=0;left=0;bottom=0;right=0;collapsible=0;dropTarget=0;fillColor=none;points=[[0,0.5],[1,0.5]];portConstraint=eastwest;strokeColor=inherit;fontSize=16;" parent="lxQGnkBti0pnb-iLvRBB-111" vertex="1">
          <mxGeometry y="100" width="250" height="30" as="geometry" />
        </mxCell>
        <mxCell id="lxQGnkBti0pnb-iLvRBB-119" value="3" style="shape=partialRectangle;html=1;whiteSpace=wrap;connectable=0;fillColor=none;top=0;left=0;bottom=0;right=0;overflow=hidden;strokeColor=inherit;fontSize=16;" parent="lxQGnkBti0pnb-iLvRBB-118" vertex="1">
          <mxGeometry width="55" height="30" as="geometry">
            <mxRectangle width="55" height="30" as="alternateBounds" />
          </mxGeometry>
        </mxCell>
        <mxCell id="lxQGnkBti0pnb-iLvRBB-120" value="End Date : 2/23/2026" style="shape=partialRectangle;html=1;whiteSpace=wrap;connectable=0;fillColor=none;top=0;left=0;bottom=0;right=0;align=left;spacingLeft=6;overflow=hidden;strokeColor=inherit;fontSize=16;" parent="lxQGnkBti0pnb-iLvRBB-118" vertex="1">
          <mxGeometry x="55" width="195" height="30" as="geometry">
            <mxRectangle width="195" height="30" as="alternateBounds" />
          </mxGeometry>
        </mxCell>
        <mxCell id="lxQGnkBti0pnb-iLvRBB-121" value="5.1" style="shape=table;startSize=30;container=1;collapsible=0;childLayout=tableLayout;fixedRows=1;rowLines=0;fontStyle=0;strokeColor=default;fontSize=16;fillColor=#FFFF66;" parent="1" vertex="1">
          <mxGeometry x="175" y="1160" width="250" height="140" as="geometry" />
        </mxCell>
        <mxCell id="lxQGnkBti0pnb-iLvRBB-122" value="" style="shape=tableRow;horizontal=0;startSize=0;swimlaneHead=0;swimlaneBody=0;top=0;left=0;bottom=0;right=0;collapsible=0;dropTarget=0;fillColor=none;points=[[0,0.5],[1,0.5]];portConstraint=eastwest;strokeColor=inherit;fontSize=16;" parent="lxQGnkBti0pnb-iLvRBB-121" vertex="1">
          <mxGeometry y="30" width="250" height="40" as="geometry" />
        </mxCell>
        <mxCell id="lxQGnkBti0pnb-iLvRBB-123" value="1" style="shape=partialRectangle;html=1;whiteSpace=wrap;connectable=0;fillColor=none;top=0;left=0;bottom=0;right=0;overflow=hidden;pointerEvents=1;strokeColor=inherit;fontSize=16;" parent="lxQGnkBti0pnb-iLvRBB-122" vertex="1">
          <mxGeometry width="55" height="40" as="geometry">
            <mxRectangle width="55" height="40" as="alternateBounds" />
          </mxGeometry>
        </mxCell>
        <mxCell id="lxQGnkBti0pnb-iLvRBB-124" value="Release to the Public" style="shape=partialRectangle;html=1;whiteSpace=wrap;connectable=0;fillColor=none;top=0;left=0;bottom=0;right=0;align=left;spacingLeft=6;overflow=hidden;strokeColor=inherit;fontSize=16;" parent="lxQGnkBti0pnb-iLvRBB-122" vertex="1">
          <mxGeometry x="55" width="195" height="40" as="geometry">
            <mxRectangle width="195" height="40" as="alternateBounds" />
          </mxGeometry>
        </mxCell>
        <mxCell id="lxQGnkBti0pnb-iLvRBB-125" value="" style="shape=tableRow;horizontal=0;startSize=0;swimlaneHead=0;swimlaneBody=0;top=0;left=0;bottom=0;right=0;collapsible=0;dropTarget=0;fillColor=none;points=[[0,0.5],[1,0.5]];portConstraint=eastwest;strokeColor=inherit;fontSize=16;" parent="lxQGnkBti0pnb-iLvRBB-121" vertex="1">
          <mxGeometry y="70" width="250" height="30" as="geometry" />
        </mxCell>
        <mxCell id="lxQGnkBti0pnb-iLvRBB-126" value="2" style="shape=partialRectangle;html=1;whiteSpace=wrap;connectable=0;fillColor=none;top=0;left=0;bottom=0;right=0;overflow=hidden;strokeColor=inherit;fontSize=16;" parent="lxQGnkBti0pnb-iLvRBB-125" vertex="1">
          <mxGeometry width="55" height="30" as="geometry">
            <mxRectangle width="55" height="30" as="alternateBounds" />
          </mxGeometry>
        </mxCell>
        <mxCell id="lxQGnkBti0pnb-iLvRBB-127" value="Start Date : 2/23/2026" style="shape=partialRectangle;html=1;whiteSpace=wrap;connectable=0;fillColor=none;top=0;left=0;bottom=0;right=0;align=left;spacingLeft=6;overflow=hidden;strokeColor=inherit;fontSize=16;" parent="lxQGnkBti0pnb-iLvRBB-125" vertex="1">
          <mxGeometry x="55" width="195" height="30" as="geometry">
            <mxRectangle width="195" height="30" as="alternateBounds" />
          </mxGeometry>
        </mxCell>
        <mxCell id="lxQGnkBti0pnb-iLvRBB-128" value="" style="shape=tableRow;horizontal=0;startSize=0;swimlaneHead=0;swimlaneBody=0;top=0;left=0;bottom=0;right=0;collapsible=0;dropTarget=0;fillColor=none;points=[[0,0.5],[1,0.5]];portConstraint=eastwest;strokeColor=inherit;fontSize=16;" parent="lxQGnkBti0pnb-iLvRBB-121" vertex="1">
          <mxGeometry y="100" width="250" height="30" as="geometry" />
        </mxCell>
        <mxCell id="lxQGnkBti0pnb-iLvRBB-129" value="3" style="shape=partialRectangle;html=1;whiteSpace=wrap;connectable=0;fillColor=none;top=0;left=0;bottom=0;right=0;overflow=hidden;strokeColor=inherit;fontSize=16;" parent="lxQGnkBti0pnb-iLvRBB-128" vertex="1">
          <mxGeometry width="55" height="30" as="geometry">
            <mxRectangle width="55" height="30" as="alternateBounds" />
          </mxGeometry>
        </mxCell>
        <mxCell id="lxQGnkBti0pnb-iLvRBB-130" value="End Date : 2/24/2026" style="shape=partialRectangle;html=1;whiteSpace=wrap;connectable=0;fillColor=none;top=0;left=0;bottom=0;right=0;align=left;spacingLeft=6;overflow=hidden;strokeColor=inherit;fontSize=16;" parent="lxQGnkBti0pnb-iLvRBB-128" vertex="1">
          <mxGeometry x="55" width="195" height="30" as="geometry">
            <mxRectangle width="195" height="30" as="alternateBounds" />
          </mxGeometry>
        </mxCell>
        <mxCell id="lxQGnkBti0pnb-iLvRBB-131" style="edgeStyle=orthogonalEdgeStyle;rounded=0;orthogonalLoop=1;jettySize=auto;html=1;exitX=1;exitY=0.5;exitDx=0;exitDy=0;entryX=0;entryY=0.5;entryDx=0;entryDy=0;fillColor=#FF0800;" parent="1" source="RmDj4SJA848HAbw2TdGj-5" target="lxQGnkBti0pnb-iLvRBB-5" edge="1">
          <mxGeometry relative="1" as="geometry" />
        </mxCell>
        <mxCell id="lxQGnkBti0pnb-iLvRBB-132" style="edgeStyle=orthogonalEdgeStyle;rounded=0;orthogonalLoop=1;jettySize=auto;html=1;exitX=1;exitY=0.5;exitDx=0;exitDy=0;entryX=0;entryY=0.5;entryDx=0;entryDy=0;" parent="1" source="RmDj4SJA848HAbw2TdGj-5" target="lxQGnkBti0pnb-iLvRBB-15" edge="1">
          <mxGeometry relative="1" as="geometry" />
        </mxCell>
        <mxCell id="lxQGnkBti0pnb-iLvRBB-134" style="edgeStyle=orthogonalEdgeStyle;rounded=0;orthogonalLoop=1;jettySize=auto;html=1;exitX=0.5;exitY=1;exitDx=0;exitDy=0;entryX=1;entryY=0.5;entryDx=0;entryDy=0;" parent="1" source="lxQGnkBti0pnb-iLvRBB-21" target="lxQGnkBti0pnb-iLvRBB-35" edge="1">
          <mxGeometry relative="1" as="geometry" />
        </mxCell>
        <mxCell id="lxQGnkBti0pnb-iLvRBB-138" style="edgeStyle=orthogonalEdgeStyle;rounded=0;orthogonalLoop=1;jettySize=auto;html=1;exitX=1;exitY=0.5;exitDx=0;exitDy=0;entryX=0;entryY=0.5;entryDx=0;entryDy=0;" parent="1" source="lxQGnkBti0pnb-iLvRBB-15" target="lxQGnkBti0pnb-iLvRBB-25" edge="1">
          <mxGeometry relative="1" as="geometry" />
        </mxCell>
        <mxCell id="lxQGnkBti0pnb-iLvRBB-144" style="edgeStyle=orthogonalEdgeStyle;rounded=0;orthogonalLoop=1;jettySize=auto;html=1;exitX=0;exitY=0.5;exitDx=0;exitDy=0;entryX=1;entryY=0.5;entryDx=0;entryDy=0;" parent="1" source="lxQGnkBti0pnb-iLvRBB-45" target="lxQGnkBti0pnb-iLvRBB-55" edge="1">
          <mxGeometry relative="1" as="geometry" />
        </mxCell>
        <mxCell id="lxQGnkBti0pnb-iLvRBB-145" style="edgeStyle=orthogonalEdgeStyle;rounded=0;orthogonalLoop=1;jettySize=auto;html=1;exitX=0;exitY=0.5;exitDx=0;exitDy=0;entryX=1;entryY=0.5;entryDx=0;entryDy=0;" parent="1" source="lxQGnkBti0pnb-iLvRBB-35" target="lxQGnkBti0pnb-iLvRBB-55" edge="1">
          <mxGeometry relative="1" as="geometry" />
        </mxCell>
        <mxCell id="lxQGnkBti0pnb-iLvRBB-146" style="edgeStyle=orthogonalEdgeStyle;rounded=0;orthogonalLoop=1;jettySize=auto;html=1;exitX=1;exitY=0.5;exitDx=0;exitDy=0;entryX=0;entryY=0.5;entryDx=0;entryDy=0;" parent="1" source="lxQGnkBti0pnb-iLvRBB-85" target="lxQGnkBti0pnb-iLvRBB-95" edge="1">
          <mxGeometry relative="1" as="geometry" />
        </mxCell>
        <mxCell id="uHwocxVgYeCJ4W9Rpe8--4" style="edgeStyle=orthogonalEdgeStyle;rounded=0;orthogonalLoop=1;jettySize=auto;html=1;exitX=0;exitY=0.5;exitDx=0;exitDy=0;entryX=1;entryY=0.5;entryDx=0;entryDy=0;" parent="1" source="lxQGnkBti0pnb-iLvRBB-105" target="lxQGnkBti0pnb-iLvRBB-125" edge="1">
          <mxGeometry relative="1" as="geometry" />
        </mxCell>
        <mxCell id="uHwocxVgYeCJ4W9Rpe8--6" style="edgeStyle=orthogonalEdgeStyle;rounded=0;orthogonalLoop=1;jettySize=auto;html=1;exitX=0;exitY=0.5;exitDx=0;exitDy=0;entryX=1;entryY=0.5;entryDx=0;entryDy=0;" parent="1" source="lxQGnkBti0pnb-iLvRBB-115" target="lxQGnkBti0pnb-iLvRBB-125" edge="1">
          <mxGeometry relative="1" as="geometry" />
        </mxCell>
      </root>
    </mxGraphModel>
  </diagram>
</mxfile>
